<svg width="295" height="87" viewBox="0 0 295 87" fill="none" xmlns="http://www.w3.org/2000/svg" xmlns:xlink="http://www.w3.org/1999/xlink">
<path d="M38.5003 8.32739C20.8097 8.32739 6.41699 22.7201 6.41699 40.4107C6.41699 58.1015 20.8097 72.4941 38.5003 72.4941C56.1911 72.4941 70.5837 58.1015 70.5837 40.4107C70.5837 22.7201 56.1911 8.32739 38.5003 8.32739ZM38.5003 13.1399C53.5901 13.1399 65.7712 25.321 65.7712 40.4107C65.7712 52.7073 57.6814 63.0657 46.5212 66.4817V58.276C46.5212 55.2117 44.7556 52.5841 42.2037 51.2764C44.6847 50.8019 46.9886 49.8606 48.9242 48.5307C50.8595 47.2012 52.3706 45.5213 53.3318 43.6309C54.293 41.7406 54.6771 39.6937 54.4515 37.6609C54.226 35.6281 53.3979 33.6674 52.0356 31.9419C52.7469 29.7517 53.542 25.9102 51.6532 22.8871C48.0121 22.8871 45.6623 25.383 44.541 26.9351C42.624 26.3054 40.5726 25.9787 38.5003 25.9732C36.4268 25.9751 34.3731 26.2985 32.4533 26.9257C31.3293 25.3729 28.9816 22.8871 25.3474 22.8871C23.1801 26.3563 24.5199 30.0872 25.2378 31.6098C23.7833 33.3279 22.8713 35.3024 22.58 37.3644C22.2886 39.4261 22.6266 41.5138 23.5648 43.4484C24.5031 45.383 26.0138 47.1065 27.9673 48.4713C29.9208 49.8365 32.2588 50.8022 34.7812 51.2857C32.6859 52.3656 31.1168 54.3253 30.6362 56.703H28.5275C26.4469 56.703 25.6385 55.8576 24.514 54.4315C23.4039 53.0054 22.2103 52.047 20.7762 51.6492C20.003 51.5674 19.4821 52.1555 20.1558 52.6768C22.4321 54.2265 22.5892 56.763 23.502 58.4233C24.333 59.9184 26.0354 61.2649 27.9604 61.2649H30.4795V66.4817C19.3194 63.0657 11.2295 52.7073 11.2295 40.4107C11.2295 25.321 23.4105 13.1399 38.5003 13.1399Z" fill="white"/>
<rect x="73" width="222" height="86.1978" fill="url(#pattern0)"/>
<defs>
<pattern id="pattern0" patternContentUnits="objectBoundingBox" width="1" height="1">
<use xlink:href="#image0_12575_2499" transform="translate(0 -0.0279717) scale(0.001 0.00257547)"/>
</pattern>
</defs>
</svg>
