<?xml version="1.0" encoding="UTF-8" standalone="no"?>
<svg
   xmlns:dc="http://purl.org/dc/elements/1.1/"
   xmlns:cc="http://creativecommons.org/ns#"
   xmlns:rdf="http://www.w3.org/1999/02/22-rdf-syntax-ns#"
   xmlns:svg="http://www.w3.org/2000/svg"
   xmlns="http://www.w3.org/2000/svg"
   xmlns:sodipodi="http://sodipodi.sourceforge.net/DTD/sodipodi-0.dtd"
   xmlns:inkscape="http://www.inkscape.org/namespaces/inkscape"
   width="72"
   height="72"
   viewBox="0 0 72 72"
   fill="none"
   version="1.1"
   id="svg4"
   sodipodi:docname="picto_erc20.svg"
   inkscape:version="0.92.4 (5da689c313, 2019-01-14)">
  <metadata
     id="metadata10">
    <rdf:RDF>
      <cc:Work
         rdf:about="">
        <dc:format>image/svg+xml</dc:format>
        <dc:type
           rdf:resource="http://purl.org/dc/dcmitype/StillImage" />
      </cc:Work>
    </rdf:RDF>
  </metadata>
  <defs
     id="defs8" />
  <sodipodi:namedview
     pagecolor="#ffffff"
     bordercolor="#666666"
     borderopacity="1"
     objecttolerance="10"
     gridtolerance="10"
     guidetolerance="10"
     inkscape:pageopacity="0"
     inkscape:pageshadow="2"
     inkscape:window-width="716"
     inkscape:window-height="480"
     id="namedview6"
     showgrid="false"
     inkscape:zoom="3.2777778"
     inkscape:cx="36"
     inkscape:cy="36"
     inkscape:window-x="1656"
     inkscape:window-y="1013"
     inkscape:window-maximized="0"
     inkscape:current-layer="svg4" />
  <path
     d="M35.4769 16.0004C35.2773 16.0049 35.0817 16.0572 34.9065 16.1529C34.7312 16.2486 34.5815 16.3848 34.4698 16.5503L23.2956 33.1066L23.2858 33.1196C23.1594 33.2728 23.0713 33.4539 23.0289 33.6479C22.9864 33.8419 22.9908 34.0432 23.0417 34.2352C23.0926 34.4272 23.1885 34.6043 23.3215 34.7518C23.4545 34.8993 23.6207 35.0129 23.8064 35.0834L34.9302 40.8511C35.1081 40.9435 35.3057 40.9917 35.5062 40.9917C35.7066 40.9917 35.9042 40.9435 36.0821 40.8511L47.2173 35.0769C47.3996 35.0053 47.5625 34.892 47.6929 34.7459C47.8233 34.5998 47.9176 34.4251 47.9681 34.2359C48.0186 34.0467 48.0239 33.8483 47.9837 33.6566C47.9434 33.465 47.8587 33.2855 47.7363 33.1326L36.5426 16.5503C36.4253 16.3766 36.2662 16.2352 36.08 16.1391C35.8938 16.043 35.6864 15.9953 35.4769 16.0004ZM34.2566 21.3353V28.6014L27.5599 31.2583L34.2566 21.3353ZM36.7557 21.3353L43.4524 31.2583L36.7557 28.6014V21.3353ZM34.2566 31.2909V37.6866L27.2687 34.0616L34.2566 31.2909ZM36.7557 31.2909L43.7436 34.0616L36.7557 37.6866V31.2909ZM46.7682 38.4919C46.5715 38.4895 46.3769 38.5335 46.2004 38.6205L35.5062 43.8854L24.8119 38.6205C24.56 38.4969 24.2738 38.4618 23.9994 38.5206C23.7251 38.5795 23.4785 38.729 23.2995 38.9451C23.1204 39.1612 23.0193 39.4312 23.0124 39.7117C23.0055 39.9922 23.0932 40.2669 23.2614 40.4915L34.4209 55.3704C34.53 55.5612 34.6875 55.7199 34.8775 55.8305C35.0675 55.941 35.2833 55.9995 35.5031 56C35.7229 56.0005 35.939 55.943 36.1295 55.8333C36.32 55.7236 36.4782 55.5656 36.5881 55.3753L47.7509 40.4915C47.8894 40.307 47.974 40.0878 47.9956 39.8581C48.0171 39.6285 47.9746 39.3973 47.8729 39.1903C47.7712 38.9833 47.6141 38.8085 47.4191 38.6852C47.2242 38.5619 46.9989 38.4951 46.7682 38.4919ZM28.3913 43.1679L34.2566 46.0558V50.9873L28.3913 43.1679ZM42.621 43.1679L36.7557 50.9873V46.0558L42.621 43.1679Z"
     fill="#D4630D"
     id="path2"
     style="fill:#f5b216;fill-opacity:1" />
</svg>
