<?xml version="1.0" encoding="UTF-8" standalone="no"?>
<svg
   xmlns:dc="http://purl.org/dc/elements/1.1/"
   xmlns:cc="http://creativecommons.org/ns#"
   xmlns:rdf="http://www.w3.org/1999/02/22-rdf-syntax-ns#"
   xmlns:svg="http://www.w3.org/2000/svg"
   xmlns="http://www.w3.org/2000/svg"
   xmlns:sodipodi="http://sodipodi.sourceforge.net/DTD/sodipodi-0.dtd"
   xmlns:inkscape="http://www.inkscape.org/namespaces/inkscape"
   width="72"
   height="72"
   viewBox="0 0 72 72"
   fill="none"
   version="1.1"
   id="svg6"
   sodipodi:docname="picto_supply.svg"
   inkscape:version="0.92.4 (5da689c313, 2019-01-14)">
  <metadata
     id="metadata12">
    <rdf:RDF>
      <cc:Work
         rdf:about="">
        <dc:format>image/svg+xml</dc:format>
        <dc:type
           rdf:resource="http://purl.org/dc/dcmitype/StillImage" />
      </cc:Work>
    </rdf:RDF>
  </metadata>
  <defs
     id="defs10" />
  <sodipodi:namedview
     pagecolor="#ffffff"
     bordercolor="#666666"
     borderopacity="1"
     objecttolerance="10"
     gridtolerance="10"
     guidetolerance="10"
     inkscape:pageopacity="0"
     inkscape:pageshadow="2"
     inkscape:window-width="1221"
     inkscape:window-height="973"
     id="namedview8"
     showgrid="false"
     inkscape:zoom="6.5555556"
     inkscape:cx="19.117764"
     inkscape:cy="42.579012"
     inkscape:window-x="1795"
     inkscape:window-y="598"
     inkscape:window-maximized="0"
     inkscape:current-layer="svg6"
     showguides="false" />
  <path
     d="M35.9766 14.0002C35.6922 14.0054 35.4151 14.0915 35.1777 14.2482C34.7233 14.418 30.9197 15.8635 26.8438 18.9513C22.5192 22.2275 18 27.387 18 34.5216C18 38.405 18.5192 41.0628 19.0723 42.7912C19.4351 43.925 19.645 44.129 19.8965 44.5412L18.4043 48.6486L18.4355 48.5705C17.3926 51.0055 18.7162 53.8631 21.248 54.6427L28.4707 56.8654C30.5077 57.4927 32.5525 56.0555 32.875 54.0216H39.125C39.4471 56.0556 41.4928 57.4929 43.5293 56.8674C43.5293 56.8667 43.5293 56.8661 43.5293 56.8654L50.75 54.6447C53.2828 53.8658 54.6093 51.0065 53.5645 48.5705L53.5957 48.6506L52.1035 44.5431C52.3549 44.1313 52.5646 43.926 52.9277 42.7912C53.4808 41.0628 54 38.405 54 34.5216C54 27.387 49.4808 22.2275 45.1562 18.9513C41.088 15.8693 37.2992 14.4268 36.832 14.2521C36.8317 14.252 36.8285 14.2503 36.8281 14.2502C36.576 14.0828 36.2791 13.9957 35.9766 14.0002ZM34.5 17.8244V31.0509C34.3083 30.8063 34.2028 30.518 33.9727 30.297C33.2341 29.5881 32.193 29.0216 31 29.0216C29.1268 29.0216 27.4971 29.7912 26.4707 31.0295C25.4444 32.2677 25 33.8695 25 35.5216C25 38.5628 27.1647 41.019 30 41.717V52.2756C29.9735 52.4366 29.9735 52.6009 30 52.7619V53.5197C30 53.8984 29.7144 54.1093 29.3535 53.9982L22.1309 51.7756C21.2558 51.5065 20.8325 50.5946 21.1934 49.7521C21.2045 49.7257 21.215 49.699 21.2246 49.672L22.9102 45.0334C22.998 44.7916 23.0222 44.5314 22.9805 44.2776C22.9388 44.0238 22.8325 43.785 22.6719 43.5841C22.6719 43.5841 22.3747 43.2737 21.9277 41.8771C21.4808 40.4805 21 38.1383 21 34.5216C21 28.6563 24.7308 24.3158 28.6562 21.342C30.9736 19.5864 32.9886 18.5294 34.5 17.8244ZM37.5 17.8244C39.0114 18.5294 41.0264 19.5864 43.3438 21.342C47.2692 24.3158 51 28.6563 51 34.5216C51 38.1383 50.5192 40.4805 50.0723 41.8771C49.6253 43.2737 49.3281 43.5841 49.3281 43.5841C49.1675 43.785 49.0612 44.0238 49.0195 44.2776C48.9778 44.5314 49.002 44.7916 49.0898 45.0334L50.7754 49.674C50.7851 49.7003 50.7955 49.7264 50.8066 49.7521C51.1678 50.5941 50.7444 51.5084 49.8691 51.7775L42.6484 53.9982C42.2868 54.1093 42 53.8984 42 53.5197V52.7677C42.0265 52.6067 42.0265 52.4424 42 52.2814V41.717C44.8353 41.019 47 38.5628 47 35.5216C47 33.9601 46.7419 32.3735 45.7578 31.0783C44.7737 29.783 43.0699 29.0216 41 29.0216C39.7453 29.0216 38.6278 29.5503 37.8398 30.2756C37.6837 30.4193 37.6363 30.6128 37.5 30.7677V17.8244ZM31 32.0216C31.307 32.0216 31.5399 32.1207 31.8945 32.4611C32.2491 32.8015 32.6414 33.3829 32.9844 34.0646C33.6703 35.428 34.1047 37.0333 34.6465 38.1681C34.7686 38.4236 34.9605 38.6393 35.2 38.7903C35.4395 38.9413 35.7169 39.0214 36 39.0214C36.2831 39.0214 36.5605 38.9413 36.8 38.7903C37.0395 38.6393 37.2314 38.4236 37.3535 38.1681C37.9474 36.9242 38.2352 35.3482 38.8496 34.0197C39.1568 33.3554 39.519 32.8067 39.8711 32.4826C40.2232 32.1585 40.5047 32.0216 41 32.0216C42.4301 32.0216 42.9763 32.3802 43.3672 32.8947C43.7581 33.4092 44 34.3222 44 35.5216C44 37.4717 42.4501 39.0216 40.5 39.0216C40.1022 39.0217 39.7207 39.1797 39.4394 39.461C39.1581 39.7423 39 40.1238 39 40.5216V51.0216H33V40.5216C33 40.1238 32.8419 39.7423 32.5606 39.461C32.2793 39.1797 31.8978 39.0217 31.5 39.0216C29.5499 39.0216 28 37.4717 28 35.5216C28 34.4128 28.3056 33.515 28.7793 32.9435C29.2529 32.3721 29.8732 32.0216 31 32.0216Z"
     id="path4"
     style="fill:#f5b216;fill-opacity:1"
     fill="#D4630D" />
</svg>
