<?xml version="1.0" encoding="UTF-8" standalone="no"?>
<svg
   xmlns:dc="http://purl.org/dc/elements/1.1/"
   xmlns:cc="http://creativecommons.org/ns#"
   xmlns:rdf="http://www.w3.org/1999/02/22-rdf-syntax-ns#"
   xmlns:svg="http://www.w3.org/2000/svg"
   xmlns="http://www.w3.org/2000/svg"
   xmlns:sodipodi="http://sodipodi.sourceforge.net/DTD/sodipodi-0.dtd"
   xmlns:inkscape="http://www.inkscape.org/namespaces/inkscape"
   width="72"
   height="72"
   viewBox="0 0 72 72"
   fill="none"
   version="1.1"
   id="svg6"
   sodipodi:docname="picto_reward.svg"
   inkscape:version="0.92.4 (5da689c313, 2019-01-14)">
  <metadata
     id="metadata12">
    <rdf:RDF>
      <cc:Work
         rdf:about="">
        <dc:format>image/svg+xml</dc:format>
        <dc:type
           rdf:resource="http://purl.org/dc/dcmitype/StillImage" />
      </cc:Work>
    </rdf:RDF>
  </metadata>
  <defs
     id="defs10" />
  <sodipodi:namedview
     pagecolor="#ffffff"
     bordercolor="#666666"
     borderopacity="1"
     objecttolerance="10"
     gridtolerance="10"
     guidetolerance="10"
     inkscape:pageopacity="0"
     inkscape:pageshadow="2"
     inkscape:window-width="1179"
     inkscape:window-height="823"
     id="namedview8"
     showgrid="false"
     inkscape:zoom="6.5555556"
     inkscape:cx="49.959773"
     inkscape:cy="35.187265"
     inkscape:window-x="2048"
     inkscape:window-y="558"
     inkscape:window-maximized="0"
     inkscape:current-layer="svg6" />
  <path
     d="M29.2793 17.0004C23.6213 16.9454 24.5 23.098 24.5 23.098C31.5 24.098 30.5 17.098 30.5 17.098C30.0625 17.0355 29.6565 17.004 29.2793 17.0004ZM42.7207 17.0004C42.3435 17.004 41.9375 17.0355 41.5 17.098C41.5 17.098 40.5 24.098 47.5 23.098C47.5 23.098 48.3787 16.9454 42.7207 17.0004ZM18.4375 21.1449C18.4375 21.1449 14.1216 27.7551 21.8926 30.5121C28.2776 33.5501 30.0879 26.4515 30.0879 26.4515C25.9891 24.0981 23.8698 26.0111 22.8223 27.9301C23.2402 25.7496 22.8676 22.7391 18.4375 21.1449ZM53.123 21.1449C48.6929 22.7391 48.3204 25.7496 48.7383 27.9301C47.6909 26.0111 45.5721 24.0981 41.4727 26.4515C41.4727 26.4515 43.283 33.5501 49.668 30.5121C57.439 27.7551 53.123 21.1449 53.123 21.1449ZM28.5 33.098C23.1818 33.4425 22.5794 36.4754 22.7402 38.434C22.1417 36.2655 20.3679 32.8863 15 34.2035C15 34.2035 15.0605 42.098 23.0605 40.098C30.0605 39.098 28.5 33.098 28.5 33.098ZM43.5 33.098C43.5 33.098 41.5 39.098 48.5 40.098C56.5 42.098 56.5605 34.2035 56.5605 34.2035C51.7013 33.0111 49.7715 35.6842 49.0039 37.8109C49.0898 35.8883 48.2609 33.4064 43.5 33.098ZM30.9316 39.2992C26.3588 39.4798 25.2608 42.0411 25.1426 44.1683C25.0345 44.1776 24.9278 44.1986 24.8242 44.2308C23.2652 42.8238 20.7467 41.849 17.3887 44.7855C17.3887 44.7855 20.5236 49.9077 25.1367 47.6351C26.4001 48.7315 28.0007 49.6055 29.7168 50.2582C27.4752 51.3043 26.0645 52.4261 26.0645 52.4261C25.904 52.5467 25.7694 52.6983 25.6686 52.8718C25.5679 53.0453 25.5029 53.2373 25.4776 53.4364C25.4524 53.6355 25.4673 53.8376 25.5215 54.0308C25.5758 54.224 25.6683 54.4044 25.7935 54.5612C25.9187 54.7181 26.0741 54.8482 26.2505 54.9439C26.4269 55.0396 26.6207 55.0989 26.8204 55.1184C27.0201 55.1378 27.2217 55.117 27.4133 55.0572C27.6048 54.9973 27.7824 54.8996 27.9355 54.7699C27.9355 54.7699 31.4068 52.068 35.7812 51.5785C40.1548 52.0686 43.625 54.7699 43.625 54.7699C43.7787 54.8943 43.9556 54.9871 44.1453 55.0429C44.335 55.0987 44.5339 55.1164 44.7305 55.0951C44.9271 55.0737 45.1176 55.0137 45.2909 54.9185C45.4643 54.8233 45.6171 54.6947 45.7405 54.5402C45.864 54.3857 45.9557 54.2084 46.0103 54.0183C46.065 53.8282 46.0815 53.6292 46.059 53.4328C46.0365 53.2363 45.9753 53.0462 45.879 52.8734C45.7828 52.7007 45.6533 52.5487 45.498 52.4261C45.498 52.4261 44.0873 51.3043 41.8457 50.2582C43.5618 49.6055 45.1624 48.7315 46.4258 47.6351C51.0386 49.9069 54.1738 44.7855 54.1738 44.7855C50.8153 41.849 48.2952 42.8238 46.7363 44.2308C46.6328 44.1986 46.526 44.1776 46.418 44.1683C46.2995 42.0411 45.2031 39.4798 40.6309 39.2992C40.6309 39.2992 39.5864 44.2084 43.1504 46.2172C41.1443 47.3914 38.3309 48.3654 36.0176 48.5375C35.9374 48.5434 35.8608 48.5557 35.7812 48.5629C35.7017 48.5557 35.6251 48.5434 35.5449 48.5375C33.2316 48.3654 30.4168 47.3914 28.4102 46.2172C31.9742 44.2084 30.9316 39.2992 30.9316 39.2992Z"
     id="path4"
     style="fill:#f5b216;fill-opacity:1"
     fill="#D4630D" />
</svg>
