<svg width="250.202" height="289.029" xmlns="http://www.w3.org/2000/svg"  x="0px" y="0px" viewBox="0 0 250.202 289.02899"><g fill="currentColor"><path d="M125.1 282.523c-6.828-.693-51.706-23.25-81.796-55.718-34.15-36.85-36.805-70.46-36.805-79.883V50.744c5.998-4.701 32.054-16.188 54.445-24.804l.145-.058c13.07-5.391 50.049-19.383 64.011-19.383 13.96 0 50.939 13.992 64.011 19.383l.145.058c22.393 8.617 48.45 20.104 54.446 24.804v96.178c0 9.423-2.654 43.032-36.808 79.883-30.091 32.468-74.967 55.025-81.794 55.718zM58.399 134.81c-6.344 11.366-9.694 24.197-9.694 37.155 0 42.122 34.271 76.392 76.395 76.392 42.122 0 76.392-34.27 76.392-76.392 0-12.962-3.352-25.795-9.699-37.161a6.309 6.309 0 00-.447-.848l-1.072-1.708-.328-.539c-.581-.954-1.181-1.938-1.867-2.943L130.6 37.596a6.499 6.499 0 00-10.997 0l-57.477 91.166c-.727 1.062-1.362 2.108-1.977 3.122l-.28.46-1.008 1.597c-.178.28-.331.571-.462.869z"/><path d="M125.1 13c11.449 0 43.818 11.588 61.531 18.892.096.04.192.078.289.115 19.129 7.362 41.728 17.194 50.281 22.252v92.664c0 5.43-.898 16.797-6.91 31.93-6.064 15.268-15.541 29.914-28.164 43.534-11.895 12.834-28.453 26.204-46.625 37.649-15.584 9.814-26.519 14.615-30.402 15.805-3.883-1.188-14.819-5.99-30.404-15.805-18.172-11.445-34.73-24.815-46.624-37.648-12.623-13.621-22.098-28.268-28.163-43.534C13.897 163.721 13 152.353 13 146.923V54.259c8.554-5.058 31.151-14.891 50.279-22.252.097-.038.193-.076.289-.116C82.58 24.047 114.241 13 125.1 13M56.688 125.197c-.796 1.171-1.484 2.304-2.096 3.312l-.226.372-1.004 1.592c-.286.454-.542.921-.766 1.399-6.801 12.276-10.391 26.115-10.391 40.093 0 45.706 37.187 82.892 82.895 82.892 45.707 0 82.892-37.186 82.892-82.892 0-13.977-3.589-27.812-10.387-40.083a13.16 13.16 0 00-.755-1.381l-1.029-1.641-.323-.53a72.379 72.379 0 00-1.982-3.127L136.098 34.13a13 13 0 00-21.994 0l-57.416 91.067M125.1 0c-18.32 0-66.49 19.874-66.49 19.874S0 42.427 0 48.698v98.225c0 18.466 8.028 51.381 38.537 84.301s78.063 57.805 86.563 57.805 56.052-24.886 86.562-57.806c30.511-32.92 38.54-65.835 38.54-84.301V48.697c0-6.271-58.612-28.824-58.612-28.824S143.417 0 125.1 0zM64.358 137.408l1.061-1.682c.696-1.143 1.381-2.293 2.138-3.391L125.1 41.062l57.547 91.277c.751 1.089 1.427 2.231 2.12 3.363l1.072 1.708h-.039c5.819 10.197 9.191 21.973 9.191 34.554 0 38.595-31.295 69.892-69.892 69.892-38.605 0-69.895-31.297-69.895-69.892 0-12.581 3.372-24.357 9.191-34.557h-.037z"/><path d="M113.314 209.315a1 1 0 01-1-1v-24.859H87.456a1 1 0 01-1-1v-23.572a1 1 0 011-1h24.858v-24.856a1 1 0 011-1h23.575a1 1 0 011 1v24.856h24.854a1 1 0 011 1v23.572a1 1 0 01-1 1h-24.854v24.859a1 1 0 01-1 1z"/><path d="M136.889 133.028v25.856h25.854v23.572h-25.854v25.859h-23.575v-25.859H87.456v-23.572h25.858v-25.856h23.575m0-2h-23.575a2 2 0 00-2 2v23.856H87.456a2 2 0 00-2 2v23.572a2 2 0 002 2h23.858v23.859a2 2 0 002 2h23.575a2 2 0 002-2v-23.859h23.854a2 2 0 002-2v-23.572a2 2 0 00-2-2h-23.854v-23.856a2 2 0 00-2-2z"/></g><path fill="currentColor" d="M-229.411 20.874S-277.583 0-295.9 0c-18.32 0-66.49 20.874-66.49 20.874S-421 42.427-421 48.698v98.225c0 18.466 8.028 51.381 38.537 84.301s86.563 57.805 86.563 57.805 56.052-24.886 86.562-57.806c30.511-32.92 38.54-65.835 38.54-84.301V48.697c0-6.27-58.613-27.823-58.613-27.823zm-158.636 70.675V73.923h19.335V54.589h17.628v19.334h19.332v17.626h-19.332v19.336h-17.628V91.549zm92.147 138.816c-34.187 0-61.895-27.715-61.895-61.892 0-11.142 2.986-21.57 8.14-30.602h-.035l.939-1.489c.617-1.012 1.223-2.03 1.893-3.003l50.958-80.825 50.96 80.83c.665.965 1.263 1.976 1.877 2.978l.95 1.513h-.035c5.153 9.031 8.139 19.458 8.139 30.599.001 34.176-27.712 61.891-61.891 61.891z"/></svg>