<?xml version="1.0" encoding="UTF-8" standalone="no"?>
<svg version="1.1" id="Layer_1" x="0px" y="0px" width="350" height="350" viewBox="0 0 350 350.00001"
	xmlns="http://www.w3.org/2000/svg">
	<g id="g915" transform="translate(0.721,-3.242171)">
		<path fill="currentColor"
			d="m 52.413,136.97317 v -0.002 0 l 113.75,-46.350998 c 0,0 -35.819,27.252998 -15.31,27.252998 20.509,0 71.365,0 124.33,0 51.152,0 55.697,-51.438998 55.947,-54.953998 0.123,-0.123 0.194,-0.195 0.194,-0.195 H 81.177 c -22.629,0.719 -41.786,8.203 -57.471,22.449 C 7.902,99.181172 0,116.48417 0,137.07517 c 0,18.634 6.627,34.855 19.869,48.671 h 0.01 c 2.224,2.532 4.66,4.984 7.316,7.354 14.812,13.824 32.644,21.259 53.487,22.314 l 105.609,-0.021 c 35.729,0 6.047,-18.43 -20.129,-29.652 -26.174,-11.221 -113.749,-48.768 -113.749,-48.768 z"
			id="path824" />
		<path fill="currentColor"
			d="m 296.145,219.51217 v 0.002 0 l -113.749,46.352 c 0,0 35.818,-27.254 15.311,-27.254 -20.51,0 -71.367,0 -124.331,0 -51.154,0 -55.698,51.439 -55.949,54.954 -0.122,0.122 -0.193,0.194 -0.193,0.194 h 250.148 c 22.629,-0.719 41.785,-8.203 57.47,-22.449 15.805,-14.008 23.706,-31.312 23.706,-51.901 0,-18.634 -6.627,-34.854 -19.868,-48.671 h -0.009 c -2.225,-2.532 -4.66,-4.984 -7.317,-7.354 -14.812,-13.823 -32.644,-21.258 -53.485,-22.314 l -105.608,0.021 c -35.729,0 -6.047,18.431 20.128,29.653 26.171,11.22 113.746,48.767 113.746,48.767 z"
			id="path826" />
	</g>
</svg>