<svg width="350" height="350" xmlns="http://www.w3.org/2000/svg" x="0px" y="0px" width="350" height="350" viewBox="0 0 350 350"><path fill="currentColor" d="M175 185.936c-29.386 0-53.207-9.265-53.207-20.695v-11.597c4.875 6.979 23.821 15.908 53.207 15.908h.002c29.386 0 48.333-8.931 53.207-15.908v11.597c0 11.433-23.821 20.695-53.207 20.695z"/><path fill="currentColor" d="M175 205.4c-29.387 0-53.208-9.267-53.208-20.695v-11.597c4.875 6.979 23.821 15.908 53.208 15.908 29.388 0 48.333-8.932 53.21-15.908v11.597c0 11.429-23.822 20.695-53.21 20.695z"/><path fill="currentColor" d="M175 224.874c-29.386 0-53.207-9.267-53.207-20.695v-11.596c4.875 6.977 23.821 15.907 53.207 15.907h.002c29.386 0 48.333-8.933 53.207-15.907v11.596c0 11.43-23.821 20.695-53.207 20.695z"/><path fill="currentColor" d="M175 244.388c-29.386 0-53.207-9.266-53.207-20.694v-11.597c4.875 6.979 23.821 15.908 53.207 15.908h.002c29.386 0 48.333-8.932 53.207-15.908v11.597c0 11.431-23.821 20.694-53.207 20.694zM53.208 205.451c-29.385 0-53.207-9.264-53.207-20.692v-11.598c4.875 6.979 23.822 15.909 53.207 15.909h.001c29.386 0 48.334-8.933 53.208-15.909v11.598c0 11.429-23.82 20.692-53.209 20.692z"/><path fill="currentColor" d="M53.208 224.917C23.822 224.917 0 215.652 0 204.224v-11.596c4.875 6.977 23.822 15.905 53.208 15.905h.001c29.387 0 48.334-8.93 53.208-15.905v11.596c0 11.428-23.82 20.693-53.209 20.693z"/><path fill="currentColor" d="M53.208 244.388c-29.385 0-53.207-9.264-53.207-20.692v-11.597c4.875 6.979 23.822 15.906 53.207 15.906h.001c29.386 0 48.334-8.93 53.208-15.906v11.597c0 11.43-23.82 20.692-53.209 20.692zM296.79 166.462c-29.387 0-53.209-9.264-53.209-20.692v-11.596c4.875 6.976 23.822 15.906 53.21 15.906h.002c29.385 0 48.331-8.931 53.207-15.906v11.596c0 11.431-23.822 20.692-53.207 20.692z"/><path fill="currentColor" d="M296.79 185.927c-29.387 0-53.209-9.266-53.209-20.695v-11.596c4.875 6.977 23.822 15.908 53.21 15.908h.002c29.385 0 48.331-8.933 53.207-15.908v11.596c0 11.432-23.822 20.695-53.207 20.695z"/><path fill="currentColor" d="M296.79 205.4c-29.387 0-53.209-9.267-53.209-20.695v-11.597c4.875 6.979 23.822 15.908 53.21 15.908h.002c29.385 0 48.331-8.932 53.207-15.908v11.597c0 11.431-23.822 20.695-53.207 20.695z"/><path fill="currentColor" d="M296.79 224.917c-29.387 0-53.209-9.267-53.209-20.693v-11.596c4.875 6.977 23.822 15.905 53.21 15.905h.002c29.385 0 48.331-8.93 53.207-15.905v11.596c0 11.428-23.822 20.693-53.207 20.693z"/><path fill="currentColor" d="M296.79 244.388c-29.387 0-53.207-9.264-53.207-20.692v-11.597c4.875 6.979 23.82 15.906 53.208 15.906h.002c29.385 0 48.331-8.93 53.207-15.906v11.597c0 11.431-23.822 20.692-53.207 20.692z"/><ellipse fill="currentColor" cx="200.001" cy="170.776" rx="53.437" ry="20.693" transform="matrix(.99572 0 0 1 -24.144 -25)"/><ellipse fill="currentColor" cx="77.686" cy="190.294" rx="53.437" ry="20.694" transform="matrix(.99572 0 0 1 -24.144 -25)"/><path fill="currentColor" d="M350 126.304c0 11.43-23.822 20.693-53.207 20.693-29.39 0-53.21-9.264-53.21-20.693 0-11.426 23.823-20.692 53.21-20.692 29.385-.001 53.207 9.266 53.207 20.692z"/></svg>