<svg id="Layer_1" data-name="Layer 1" xmlns="http://www.w3.org/2000/svg" viewBox="0 0 160 160"><defs><style>.cls-1{fill:#171414;}.cls-2{fill:#161414;}.cls-3{fill:#0b0101;}.cls-4{fill:#ca5e0c;}.cls-5{fill:#110402;}.cls-6{fill:#802729;}.cls-7{fill:#802629;}.cls-8{fill:#812629;}.cls-9{fill:#100301;}.cls-10{fill:#110301;}.cls-11{fill:#231812;}.cls-12{fill:#2c1c11;}.cls-13{fill:#2d1c11;}.cls-14{fill:#1b1515;}.cls-15{fill:#1a1515;}.cls-16{fill:#0f0203;}</style></defs><path class="cls-1" d="M1040,532v16.5a5.55,5.55,0,0,0-.54,1.23c-1.06,7-2.4,13.85-5.46,20.27-.74-.66-1.52-1.28-2.22-2q-24.62-24.59-49.23-49.18a15.76,15.76,0,0,0-2.81-1.78l-.79-.86-.6-1.13.06.06-.54-.54,0,0-.54-.54,0,.07-1-.61,0,0-1-1,0,.05a10.93,10.93,0,0,0-1.35-2.24c-4.12-4.2-8.31-8.36-12.49-12.52-.5-.5-1.08-.92-1.77-1.5-5,5-9.87,9.93-14.73,14.81a7.49,7.49,0,0,0-1,1.08,7.15,7.15,0,0,0-.51,1.34l0,0-1,.61,0-.07-.54.54,0,0-.54.54.06-.06-.6,1.13L939.53,518a8.54,8.54,0,0,0-2.46,1.2Q912.62,543.59,888.22,568c-.7.7-1.48,1.32-2.22,2-1.5-4.88-3.06-9.74-4.48-14.64-.65-2.25-1-4.57-1.52-6.86v-17a27.57,27.57,0,0,0,.88-3.2,79.73,79.73,0,0,1,62.27-66.47c2.94-.65,5.9-1.22,8.85-1.83h15.5c1.4.3,2.79.67,4.2.88,33.22,5,59.15,29.3,66.47,62.27C1038.82,526.09,1039.39,529.05,1040,532ZM929,491.91l-.19.84c-3.3-1.56-4.43,1.51-6.4,2.76A6.38,6.38,0,0,0,923,497c1.15,2.46,2.18,5,5.48,5.25,0,0,.08.43.13.43a5.16,5.16,0,0,0,1.84,0c.34-.11.44-.81.78-1.08,1.56-1.21,2.81-5.35,1.62-7.51C932.2,493,930.28,492.61,929,491.91Zm80.8,5,.69-.05c-.53-1.38-.81-3.75-1.63-3.95a16.53,16.53,0,0,0-6.79,0c-1,.19-1.83,1.6-2.66,2.54a1.38,1.38,0,0,0,0,1.06c1.81.49,1.51,2,1.8,3.3a2.49,2.49,0,0,0,1.64,1.55c1.23.28,2.7-.14,3.08,1.7,0,.1,1.09.21,1.21,0C1008.32,501.2,1011.24,500.07,1009.76,496.89Zm-96.23,6.44c2.07-2.13,6.22-2.2,6.22-6.27,0-.12.49-.19.58-.37s.26-.81.13-.92a18.72,18.72,0,0,0-4.07-3.17c-1.1-.5-2.61-.08-3.94-.1-1.64,0-2.27.77-2.49,2.4C909.5,498.45,910.27,501.39,913.53,503.33Zm77.05.1c.71-.67,1.37-1.83,2-1.82,2.43,0,3-1.05,3.61-3.32.49-1.78,1.33-2.9-.27-4.5-1.22-1.22-7.05-2-8.26-.68a3.58,3.58,0,0,0-.66,1.77C986.37,498.42,987.32,501.35,990.58,503.43Zm-61.42,1.06c-.71,1.66-1.52,3.17-3.78,2.39-.26-.09-1.14.74-1.24,1.24-.27,1.31.12,2.87-1.77,3.32-.12,0-.22.82-.14.85,1.88.84,2.28,3.52,5.22,3.32,5.54-.38,5.61-.1,5.5-5.67a6,6,0,0,0-1-3.1A13.83,13.83,0,0,0,929.16,504.49Zm77,0c-.69,1.8-1.71,3.16-4,2.35-.19-.06-.74.42-.88.76-.59,1.37.18,3.43-2,4-.08,0-.15.59,0,.66,1.46,1.11,2.91,3,4.44,3.09,7.13.35,6.33.75,6.31-6.61a3.2,3.2,0,0,0-1-1.88A30.87,30.87,0,0,0,1006.16,504.51Zm-86,7.77a36.19,36.19,0,0,0-1.18-3.56,3.46,3.46,0,0,0-1.39-1.69,33.27,33.27,0,0,0-4.12-1.25,3.84,3.84,0,0,0-2.45,1c-1.28.94-1.53,7.12-.28,8.12a2.57,2.57,0,0,0,1.58.53c2.82,0,6.09,1,7.47-2.85C919.85,512.37,920.21,512.22,920.14,512.28Zm69.75-6.73c-.17.12-1,.63-1.76,1.18-1.42,1-1.72,7.25-.35,8.28a2.87,2.87,0,0,0,1.61.47c2.83,0,6.08.94,7.47-2.9.06-.19.62-.2.28-.1a27.07,27.07,0,0,0-1.2-3.84,4,4,0,0,0-1.7-1.61A41,41,0,0,0,989.89,505.55Z" transform="translate(-880 -460)"/><path class="cls-2" d="M967.5,620h-16a5.12,5.12,0,0,0-1.23-.54,80.63,80.63,0,0,1-22.89-6.41c-8-3.65-15.37-8.16-21.58-14.44L922.49,582a8.67,8.67,0,0,1,1.69,1.34c1.08,1.36,7.15,1.75,8.29.44.21-.24.5-.6.45-.85-.53-2.64,1.81-6.1-2.19-7.79-.2-.08-.14-.76-.21-1.16,2.19-2.11,4.43-4.17,6.55-6.35,1.24-1.27,2.3-2.71,3.44-4.08,2.53.76,5.11,1.39,7.58,2.33,2.75,1,4.52,1.06,6-1.42s3.37-2.75,5.77-2.51a11.08,11.08,0,0,0,2.23,0,2.73,2.73,0,0,1,3.1,1.76,5,5,0,0,0,6.07,2.55c2.72-.94,5.48-1.8,8.22-2.69,2.6,2.82,5.16,5.68,7.82,8.44a18.69,18.69,0,0,0,2.7,2,10.35,10.35,0,0,1-1.48,1.48c-1.57,1.06-2.31,6.94-1,8.33a1.73,1.73,0,0,0,1,.6,29.2,29.2,0,0,0,5.92-.13c.74-.13,1.2-1.57,1.87-2.34.24-.27.72-.31,1.1-.46a16.83,16.83,0,0,0,1.66,2.38c4.26,4.33,8.6,8.59,12.85,12.92a13.85,13.85,0,0,1,1.55,2.44A76.61,76.61,0,0,1,977.83,618C974.42,618.78,970.94,619.33,967.5,620Z" transform="translate(-880 -460)"/><path class="cls-3" d="M1034,570a72.79,72.79,0,0,1-14.76,23.68c-1.77,2-3.78,3.72-5.68,5.56a13.85,13.85,0,0,0-1.55-2.44c-4.25-4.33-8.59-8.59-12.85-12.92a16.83,16.83,0,0,1-1.66-2.38c-.6-1.62-1.18-3.25-1.8-4.86-.08-.21-.38-.52-.51-.49-2.22.47-3.56-1.16-5.17-2.13a18.69,18.69,0,0,1-2.7-2c-2.66-2.76-5.22-5.62-7.82-8.44.46-.19.92-.39,1.39-.56,4.47-1.65,6-5,4.36-9.47a14.44,14.44,0,0,1-1.08-3,10,10,0,0,1,.09-4c2.2-7.61,3-15.2-.4-22.65a63.56,63.56,0,0,0-4.12-6.81,15.76,15.76,0,0,1,2.81,1.78q24.65,24.57,49.23,49.18C1032.48,568.72,1033.26,569.34,1034,570Zm-28.15-9.07-.17.82c-3.17-1.51-4.32,1.42-6.25,2.62-.21.13-.14,1.19-.07,1.21,2,.4,1.39,2.06,1.82,3.28a3.06,3.06,0,0,0,1.93,1.56c1.09.26,2.38-.14,2.65,1.54a2.91,2.91,0,0,0,1.55-.11c.41-.23.51-1,.91-1.28,1.53-1.19,2.8-5.51,1.57-7.55C1009.14,561.92,1007.21,561.6,1005.85,560.93Zm-14.35.85-.15-.86c-1.43.69-3.66,1.05-4.1,2.14a9.63,9.63,0,0,0,0,5.87c.39,1.34,2,2.33,3.09,3.45a.79.79,0,0,0,.66-.12c.57-2,2.26-1.69,3.72-2a1.86,1.86,0,0,0,1.12-1.21c.33-1.34-.11-3,1.89-3.51.1,0,.17-1,0-1C995.66,563.55,994.84,560.07,991.5,561.78ZM1010,580.23c0-3.56-.33-4.32-2.87-6.36a2,2,0,0,0-.85-.24c-.77,2.37-2.9,2.32-4.77,2.79-.2,0-.35.55-.4.86-.18,1.22.26,2.76-1.68,3.07-.09,0-.25,1.07-.06,1.21,1.9,1.4,3.26,3.41,6.34,3.06C1010,584.13,1010,584.49,1010,580.23Z" transform="translate(-880 -460)"/><path class="cls-3" d="M905.8,598.61c-2.67-2.78-5.52-5.41-8-8.38A68,68,0,0,1,886,570c.74-.66,1.52-1.28,2.22-2q24.42-24.4,48.85-48.79a8.54,8.54,0,0,1,2.46-1.2c-6.22,8.07-6.93,17.16-4.2,26.51a12,12,0,0,1-.5,8.74c-1.61,3.8-.64,7.08,2.46,9a22.91,22.91,0,0,0,3.22,1.33c-1.14,1.37-2.2,2.81-3.44,4.08-2.12,2.18-4.36,4.24-6.55,6.35-.45-.12-1.3-.37-1.31-.35-.71,2.15-2.55,2-4.29,2.64-1.56.54-.59,3.79-2.85,4.61l.42,1.12ZM932.72,566l.79-.06c-.58-1.43-.76-3.43-1.82-4.18-2.16-1.51-8.18.49-9.43,2.76-.16.29.12,1.2.29,1.22,1.68.27,1.33,1.55,1.53,2.65a2.68,2.68,0,0,0,1.11,1.77c1.36.61,3.37-.07,3.93,2.11,0,.06.8.07.86-.06C930.91,570.17,934.43,569.37,932.72,566Zm-17.78-4.51c-4.93,0-4.93,0-4.93,4.56a5.2,5.2,0,0,1,0,1.25c-.69,2.78,2.54,3.06,3.19,5,0,0,1-.11,1-.28.37-1.67,1.63-1.42,2.85-1.64a2.88,2.88,0,0,0,1.8-1.67c.42-1.14-.21-2.76,1.73-3.07.1,0,.23-1.13.07-1.21C918.64,563.4,917.7,560.09,914.94,561.51Zm5.25,19.6c-.48-1.41-.77-2.54-1.24-3.58a3.1,3.1,0,0,0-1.31-1.51c-1.39-.58-2.87-.92-4.65-1.46-.72,1.09-3.22,1.26-3.09,4.25.28,6.14-.21,5.76,6,5.64a4.82,4.82,0,0,0,2.8-1A8.41,8.41,0,0,0,920.19,581.11Z" transform="translate(-880 -460)"/><path class="cls-4" d="M940.51,563.56a22.91,22.91,0,0,1-3.22-1.33c-3.1-1.87-4.07-5.15-2.46-9a12,12,0,0,0,.5-8.74c-2.73-9.35-2-18.44,4.2-26.51l1.52-1.83.6-1.13-.06.06.54-.54,0,0,.54-.54,0,.07,1-.61,0,0c4.69-2.93,9.33-5.94,14.1-8.73a5,5,0,0,1,3.71-.43,35.69,35.69,0,0,1,6.44,3.18c2.61,1.56,5.09,3.33,7.63,5l0-.05,1,1,0,0,1,.61,0-.07.54.54,0,0,.54.54-.06-.06.6,1.13.79.86a63.56,63.56,0,0,1,4.12,6.81c3.35,7.45,2.6,15,.4,22.65a10,10,0,0,0-.09,4,14.44,14.44,0,0,0,1.08,3c1.68,4.42.11,7.82-4.36,9.47-.47.17-.93.37-1.39.56-2.74.89-5.5,1.75-8.22,2.69a5,5,0,0,1-6.07-2.55,2.73,2.73,0,0,0-3.1-1.76,11.08,11.08,0,0,1-2.23,0c-2.4-.24-4.27.06-5.77,2.51s-3.27,2.46-6,1.42C945.62,565,943,564.32,940.51,563.56Zm23.73-15.1c0-1.82.14-3.64.12-5.47a2.56,2.56,0,0,1,2.44-2.86c3.75-.69,5.36-3.12,4.64-6.81a3.59,3.59,0,0,0-3.05-3.18,3.21,3.21,0,0,0-3.81,2.07c-.82,1.9-1.35,3.94-2.28,5.77a3.83,3.83,0,0,1-2.37,2c-.67.08-1.76-1-2.2-1.85-1.05-2-1.66-4.17-2.75-6.11-1.51-2.68-4.31-2.52-5.85.18a5.18,5.18,0,0,0,3.84,7.89c2,.29,2.7,1.27,2.67,3.15s.07,3.48.12,5.23v8.87h8.48Zm11.55,11.28c.89-.2,1.79-.36,2.66-.61,3.27-.94,3.6-1.6,2.44-4.81-.43-1.17-.85-2.34-1.34-3.49a6.28,6.28,0,0,1,.14-5c2.36-6.57,3.14-13.36.26-20-3.18-7.3-9.25-11.81-16.06-15.45a8.44,8.44,0,0,0-1.6-.48V527.5c.5-.23.79-.33,1.06-.48,5.66-3.1,11.6-.18,12.5,6.15a9.73,9.73,0,0,1-5.35,10.35,3.53,3.53,0,0,0-1.78,2.2c-.17,2.73,0,5.49.07,8.23-.07,2.15-.22,4.3-.13,6.44,0,.51,1,1.49,1.35,1.4C972,561.24,973.87,560.45,975.79,559.74Zm-31.27.21c1.68.6,3.36,1.21,5.05,1.79,1.31.46,1.87-.12,1.84-1.41-.06-2.13-.13-4.25-.2-6.38.06-2.5,0-5,.18-7.48a2.63,2.63,0,0,0-1.87-3,8.81,8.81,0,0,1-5.21-6.32c-.88-3.59.49-8,3.39-9.81,3.14-2,6.11-2.6,9.61.42.07,0,.29-.08.36-.1V509.82a11.86,11.86,0,0,0-1.35.52c-1.8,1-3.68,2-5.36,3.19-12.26,8.77-15,17.79-10.94,31.41a10.24,10.24,0,0,1-.09,7.34c-2.21,5.46-2.69,5.77,4.09,7.63A4,4,0,0,0,944.52,560Z" transform="translate(-880 -460)"/><path class="cls-5" d="M975.43,512.61c-2.54-1.68-5-3.45-7.63-5a35.69,35.69,0,0,0-6.44-3.18,5,5,0,0,0-3.71.43c-4.77,2.79-9.41,5.8-14.1,8.73a7.15,7.15,0,0,1,.51-1.34,7.49,7.49,0,0,1,1-1.08c4.86-4.88,9.72-9.76,14.73-14.81.69.58,1.27,1,1.77,1.5,4.18,4.16,8.37,8.32,12.49,12.52A10.93,10.93,0,0,1,975.43,512.61Z" transform="translate(-880 -460)"/><path class="cls-6" d="M929,491.91c1.32.7,3.24,1.07,3.85,2.16,1.19,2.16-.06,6.3-1.62,7.51-.34.27-.44,1-.78,1.08a5.16,5.16,0,0,1-1.84,0c-.05,0-.08-.43-.13-.43-3.3-.22-4.33-2.79-5.48-5.25a6.38,6.38,0,0,1-.59-1.48c2-1.25,3.1-4.32,6.4-2.76Zm-2.77,7.33H931c0-1,0-1.7,0-2.43s-.12-1.42-.18-2.07C925.85,494.06,925.73,494.18,926.19,499.24Z" transform="translate(-880 -460)"/><path class="cls-6" d="M1009.76,496.89c1.48,3.18-1.44,4.31-2.67,6.21-.12.19-1.19.08-1.21,0-.38-1.84-1.85-1.42-3.08-1.7a2.49,2.49,0,0,1-1.64-1.55c-.29-1.32,0-2.81-1.8-3.3a1.38,1.38,0,0,1,0-1.06c.83-.94,1.64-2.35,2.66-2.54a16.53,16.53,0,0,1,6.79,0c.82.2,1.1,2.57,1.63,3.95Zm-6.58,2.38h4.64v-4.61h-4.64Z" transform="translate(-880 -460)"/><path class="cls-7" d="M913.53,503.33c-3.26-1.94-4-4.88-3.57-8.43.22-1.63.85-2.43,2.49-2.4,1.33,0,2.84-.4,3.94.1a18.72,18.72,0,0,1,4.07,3.17c.13.11,0,.64-.13.92s-.58.25-.58.37C919.75,501.13,915.6,501.2,913.53,503.33Zm-1.42-4h4.71v-4.57h-4.71Z" transform="translate(-880 -460)"/><path class="cls-7" d="M990.58,503.43c-3.26-2.08-4.21-5-3.56-8.55a3.58,3.58,0,0,1,.66-1.77c1.21-1.32,7-.54,8.26.68,1.6,1.6.76,2.72.27,4.5-.62,2.27-1.18,3.32-3.61,3.32C992,501.6,991.29,502.76,990.58,503.43Zm-1.37-8.79v4.64h4.59v-4.64Z" transform="translate(-880 -460)"/><path class="cls-6" d="M929.16,504.49a13.83,13.83,0,0,1,2.77,2.35,6,6,0,0,1,1,3.1c.11,5.57,0,5.29-5.5,5.67-2.94.2-3.34-2.48-5.22-3.32-.08,0,0-.82.14-.85,1.89-.45,1.5-2,1.77-3.32.1-.5,1-1.33,1.24-1.24C927.64,507.66,928.45,506.15,929.16,504.49Zm-3,9.18c4.45.85,5.55-.39,4.44-5h-4.44Z" transform="translate(-880 -460)"/><path class="cls-6" d="M1006.16,504.51a30.87,30.87,0,0,1,2.84,2.35,3.2,3.2,0,0,1,1,1.88c0,7.36.82,7-6.31,6.61-1.53-.07-3-2-4.44-3.09-.1-.07,0-.64,0-.66,2.23-.55,1.46-2.61,2-4,.14-.34.69-.82.88-.76C1004.45,507.67,1005.47,506.31,1006.16,504.51Zm1.69,4.25h-4.61v5.43l4.61-.88Z" transform="translate(-880 -460)"/><path class="cls-7" d="M920.14,512.28c.07-.06-.29.09-.37.34-1.38,3.88-4.65,2.81-7.47,2.85a2.57,2.57,0,0,1-1.58-.53c-1.25-1-1-7.18.28-8.12a3.84,3.84,0,0,1,2.45-1,33.27,33.27,0,0,1,4.12,1.25,3.46,3.46,0,0,1,1.39,1.69A36.19,36.19,0,0,1,920.14,512.28ZM912,508.69c0,1.12,0,1.94,0,2.76s.09,1.6.14,2.35c4.71.52,5.42-.3,4.51-5.11Z" transform="translate(-880 -460)"/><path class="cls-7" d="M989.89,505.55a41,41,0,0,1,4.35,1.48,4,4,0,0,1,1.7,1.61,27.07,27.07,0,0,1,1.2,3.84c.34-.1-.22-.09-.28.1-1.39,3.84-4.64,2.88-7.47,2.9a2.87,2.87,0,0,1-1.61-.47c-1.37-1-1.07-7.29.35-8.28C988.92,506.18,989.72,505.67,989.89,505.55Zm-.76,8.25c4.72.52,5.43-.31,4.53-5h-4.53Z" transform="translate(-880 -460)"/><path class="cls-5" d="M976.45,513.58l-1-1Z" transform="translate(-880 -460)"/><path class="cls-5" d="M977.42,514.16l-1-.61Z" transform="translate(-880 -460)"/><path class="cls-5" d="M943.57,513.55l-1,.61Z" transform="translate(-880 -460)"/><path class="cls-5" d="M941.65,515.07l-.6,1.13Z" transform="translate(-880 -460)"/><path class="cls-5" d="M979,516.2l-.6-1.13Z" transform="translate(-880 -460)"/><path class="cls-5" d="M942.63,514.09l-.54.54Z" transform="translate(-880 -460)"/><path class="cls-5" d="M978.41,515.13l-.54-.54Z" transform="translate(-880 -460)"/><path class="cls-5" d="M942.13,514.59l-.54.54Z" transform="translate(-880 -460)"/><path class="cls-5" d="M977.91,514.63l-.54-.54Z" transform="translate(-880 -460)"/><path class="cls-7" d="M922.49,582l-.42-1.12c2.26-.82,1.29-4.07,2.85-4.61,1.74-.61,3.58-.49,4.29-2.64,0,0,.86.23,1.31.35.07.4,0,1.08.21,1.16,4,1.69,1.66,5.15,2.19,7.79.05.25-.24.61-.45.85-1.14,1.31-7.21.92-8.29-.44A8.67,8.67,0,0,0,922.49,582Zm8.41-4.31h-4.71v5.41l4.71-.76Z" transform="translate(-880 -460)"/><path class="cls-7" d="M990,574c1.61,1,3,2.6,5.17,2.13.13,0,.43.28.51.49.62,1.61,1.2,3.24,1.8,4.86-.38.15-.86.19-1.1.46-.67.77-1.13,2.21-1.87,2.34a29.2,29.2,0,0,1-5.92.13,1.73,1.73,0,0,1-1-.6c-1.35-1.39-.61-7.27,1-8.33A10.35,10.35,0,0,0,990,574Zm-.89,8.67c4.61.81,5.61-.35,4.46-5h-4.46Z" transform="translate(-880 -460)"/><path class="cls-8" d="M1005.85,560.93c1.36.67,3.29,1,3.94,2.09,1.23,2,0,6.36-1.57,7.55-.4.31-.5,1-.91,1.28a2.91,2.91,0,0,1-1.55.11c-.27-1.68-1.56-1.28-2.65-1.54a3.06,3.06,0,0,1-1.93-1.56c-.43-1.22.14-2.88-1.82-3.28-.07,0-.14-1.08.07-1.21,1.93-1.2,3.08-4.13,6.25-2.62Zm2,7.43v-4.64h-4.62v4.64Z" transform="translate(-880 -460)"/><path class="cls-8" d="M991.5,561.78c3.34-1.71,4.16,1.77,6.21,2.72.14.07.07,1,0,1-2,.47-1.56,2.17-1.89,3.51a1.86,1.86,0,0,1-1.12,1.21c-1.46.3-3.15,0-3.72,2a.79.79,0,0,1-.66.12c-1.09-1.12-2.7-2.11-3.09-3.45a9.63,9.63,0,0,1,0-5.87c.44-1.09,2.67-1.45,4.1-2.14Zm-2.34,1.81v4.64h4.6v-4.64Z" transform="translate(-880 -460)"/><path class="cls-8" d="M1010,580.23c0,4.26,0,3.9-4.29,4.39-3.08.35-4.44-1.66-6.34-3.06-.19-.14,0-1.19.06-1.21,1.94-.31,1.5-1.85,1.68-3.07,0-.31.2-.82.4-.86,1.87-.47,4-.42,4.77-2.79a2,2,0,0,1,.85.24C1009.66,575.91,1010,576.67,1010,580.23Zm-6.84,3,4.63-.85v-4.59h-4.63Z" transform="translate(-880 -460)"/><path class="cls-8" d="M932.72,566c1.71,3.35-1.81,4.15-2.74,6.21-.06.13-.84.12-.86.06-.56-2.18-2.57-1.5-3.93-2.11a2.68,2.68,0,0,1-1.11-1.77c-.2-1.1.15-2.38-1.53-2.65-.17,0-.45-.93-.29-1.22,1.25-2.27,7.27-4.27,9.43-2.76,1.06.75,1.24,2.75,1.82,4.18Zm-1.84-2.29h-4.65v4.56h4.65Z" transform="translate(-880 -460)"/><path class="cls-8" d="M914.94,561.51c2.76-1.42,3.7,1.89,5.7,2.93.16.08,0,1.19-.07,1.21-1.94.31-1.31,1.93-1.73,3.07a2.88,2.88,0,0,1-1.8,1.67c-1.22.22-2.48,0-2.85,1.64,0,.17-1,.31-1,.28-.65-1.93-3.88-2.21-3.19-5a5.2,5.2,0,0,0,0-1.25C910,561.51,910,561.51,914.94,561.51Zm1.88,2.18h-4.65v4.62h4.65Z" transform="translate(-880 -460)"/><path class="cls-7" d="M920.19,581.11a8.41,8.41,0,0,1-1.54,2.3,4.82,4.82,0,0,1-2.8,1c-6.16.12-5.67.5-6-5.64-.13-3,2.37-3.16,3.09-4.25,1.78.54,3.26.88,4.65,1.46a3.1,3.1,0,0,1,1.31,1.51C919.42,578.57,919.71,579.7,920.19,581.11Zm-8,1.57c4.53.86,5.5-.24,4.45-5h-4.45Z" transform="translate(-880 -460)"/><path class="cls-9" d="M944.52,560a4,4,0,0,1-.5,0c-6.78-1.86-6.3-2.17-4.09-7.63a10.24,10.24,0,0,0,.09-7.34c-4-13.62-1.32-22.64,10.94-31.41,1.68-1.21,3.56-2.15,5.36-3.19a11.86,11.86,0,0,1,1.35-.52v17.82c-.07,0-.29.15-.36.1-3.5-3-6.47-2.4-9.61-.42-2.9,1.84-4.27,6.22-3.39,9.81a8.81,8.81,0,0,0,5.21,6.32,2.63,2.63,0,0,1,1.87,3c-.13,2.49-.12,5-.18,7.48Z" transform="translate(-880 -460)"/><path class="cls-9" d="M968.79,554c0-2.74-.24-5.5-.07-8.23a3.53,3.53,0,0,1,1.78-2.2,9.73,9.73,0,0,0,5.35-10.35c-.9-6.33-6.84-9.25-12.5-6.15-.27.15-.56.25-1.06.48V510a8.44,8.44,0,0,1,1.6.48c6.81,3.64,12.88,8.15,16.06,15.45,2.88,6.61,2.1,13.4-.26,20a6.28,6.28,0,0,0-.14,5c.49,1.15.91,2.32,1.34,3.49,1.16,3.21.83,3.87-2.44,4.81-.87.25-1.77.41-2.66.6-.87-.6-1.8-1.12-2.61-1.8C971.68,556.65,970.25,555.28,968.79,554Z" transform="translate(-880 -460)"/><path class="cls-10" d="M955.76,548.47c0-1.75-.14-3.49-.12-5.23s-.68-2.86-2.67-3.15a5.18,5.18,0,0,1-3.84-7.89c1.54-2.7,4.34-2.86,5.85-.18,1.09,1.94,1.7,4.15,2.75,6.11.44.83,1.53,1.93,2.2,1.85a3.83,3.83,0,0,0,2.37-2c.93-1.83,1.46-3.87,2.28-5.77a3.21,3.21,0,0,1,3.81-2.07,3.59,3.59,0,0,1,3.05,3.18c.72,3.69-.89,6.12-4.64,6.81a2.56,2.56,0,0,0-2.44,2.86c0,1.83-.07,3.65-.12,5.47L960,545.09Z" transform="translate(-880 -460)"/><path class="cls-11" d="M955.76,548.47l4.24-3.38,4.24,3.37v8.88h-8.48Z" transform="translate(-880 -460)"/><path class="cls-12" d="M968.79,554c1.46,1.33,2.89,2.7,4.39,4,.81.68,1.74,1.2,2.61,1.8-1.92.72-3.81,1.51-5.78,2.06-.31.09-1.32-.89-1.35-1.4C968.57,558.25,968.72,556.1,968.79,554Z" transform="translate(-880 -460)"/><path class="cls-13" d="M944.52,560l6.69-6c.07,2.13.14,4.25.2,6.38,0,1.29-.53,1.87-1.84,1.41C947.88,561.16,946.2,560.55,944.52,560Z" transform="translate(-880 -460)"/><path class="cls-14" d="M926.19,499.24c-.46-5.06-.34-5.18,4.63-4.5.06.65.15,1.36.18,2.07s0,1.47,0,2.43Z" transform="translate(-880 -460)"/><path class="cls-14" d="M1003.18,499.27v-4.61h4.64v4.61Z" transform="translate(-880 -460)"/><path class="cls-14" d="M912.11,499.29v-4.57h4.71v4.57Z" transform="translate(-880 -460)"/><path class="cls-14" d="M989.21,494.64h4.59v4.64h-4.59Z" transform="translate(-880 -460)"/><path class="cls-14" d="M926.18,513.67v-5h4.44C931.73,513.28,930.63,514.52,926.18,513.67Z" transform="translate(-880 -460)"/><path class="cls-14" d="M1007.85,508.76v4.55l-4.61.88v-5.43Z" transform="translate(-880 -460)"/><path class="cls-14" d="M912,508.69h4.66c.91,4.81.2,5.63-4.51,5.11,0-.75-.12-1.55-.14-2.35S912,509.81,912,508.69Z" transform="translate(-880 -460)"/><path class="cls-14" d="M989.13,513.8v-5h4.53C994.56,513.49,993.85,514.32,989.13,513.8Z" transform="translate(-880 -460)"/><path class="cls-15" d="M930.9,577.7v4.65l-4.71.76V577.7Z" transform="translate(-880 -460)"/><path class="cls-15" d="M989.13,582.69v-5h4.46C994.74,582.34,993.74,583.5,989.13,582.69Z" transform="translate(-880 -460)"/><path class="cls-16" d="M1007.85,568.36h-4.62v-4.64h4.62Z" transform="translate(-880 -460)"/><path class="cls-16" d="M989.16,563.59h4.6v4.64h-4.6Z" transform="translate(-880 -460)"/><path class="cls-16" d="M1003.15,583.19v-5.44h4.63v4.59Z" transform="translate(-880 -460)"/><path class="cls-16" d="M930.88,563.73v4.56h-4.65v-4.56Z" transform="translate(-880 -460)"/><path class="cls-16" d="M916.82,563.69v4.62h-4.65v-4.62Z" transform="translate(-880 -460)"/><path class="cls-16" d="M912.15,582.68v-5h4.45C917.65,582.44,916.68,583.54,912.15,582.68Z" transform="translate(-880 -460)"/></svg>