<?xml version="1.0" encoding="UTF-8" standalone="no"?>
<svg
   fill="#000000"
   viewBox="0 0 30 30"
   version="1.1"
   id="svg4">
  <path
     d="M 12.608749,7.1070492 C 12.412405,6.5612496 12.214261,6.0109467 12.210658,6.0037415 12.116089,5.7920865 11.897228,5.6587889 11.66666,5.682206 11.520753,5.6939146 8.0685251,5.9911322 5.8565057,7.7699346 4.700059,8.8381166 2.3907682,15.083289 2.3907682,20.482742 c 0,0.09547 0.024318,0.188238 0.072053,0.271098 1.5950678,2.801052 5.9434516,3.534188 6.9341766,3.565712 0.00628,9e-4 0.011707,9e-4 0.017116,9e-4 0.1747278,0 0.3386479,-0.08376 0.4431244,-0.225165 L 10.929022,22.643424 C 9.158323,22.374127 8.838589,22.02287 8.7638342,21.967929 8.3639415,21.673414 8.0685251,21.260912 8.4269876,20.740331 8.7025894,20.335935 9.280813,20.202638 9.7239374,20.430504 10.177869,20.642159 11.392859,21.323058 15,21.305044 c 3.581923,-0.01081 5.154474,-0.761057 5.176991,-0.777269 0.60164,-0.271098 1.070884,-0.159417 1.363597,0.242277 0.348556,0.546701 0.09997,0.916872 -0.298118,1.210487 -0.07475,0.05494 -0.255787,0.208953 -2.15798,0.659283 l 1.058275,1.454565 c 0.103577,0.142304 0.268397,0.225165 0.443125,0.225165 0.0063,0 0.01171,0 0.01712,-9.01e-4 0.991626,-0.03152 5.34001,-0.76466 6.934177,-3.565711 0.04773,-0.08286 0.07204,-0.175629 0.07204,-0.271098 0,-5.398553 -2.309291,-11.6437254 -3.494559,-12.7353246 C 21.93147,5.9920328 18.479242,5.6948153 18.333336,5.682206 18.102767,5.662391 17.883907,5.7929871 17.789338,6.0037415 c -0.0036,0.00721 -0.196344,0.5665147 -0.382781,1.1060096 0,0 -1.468975,-0.2152575 -2.406562,-0.2152575 -0.937586,0 -2.391251,0.2125556 -2.391251,0.2125556 z M 11.397363,18.603066 c -0.99523,0 -1.8013199,-1.200579 -1.8013199,-2.683064 0,-1.482486 0.8060899,-2.683065 1.8013199,-2.683065 0.998831,-0.148609 1.779702,1.200579 1.801319,2.683065 0,1.482485 -0.806091,2.683064 -1.801319,2.683064 z m 7.205275,0 c -0.995229,0 -1.801319,-1.208685 -1.801319,-2.699276 0,-1.490592 0.80609,-2.699276 1.801319,-2.699276 0.995228,0 1.801318,1.208684 1.801318,2.699276 0,1.490591 -0.80609,2.699276 -1.801318,2.699276 z"
     id="path2"
     style="stroke-width:0.90065944" />
</svg>
