<?xml version="1.0" encoding="UTF-8" standalone="no"?>
<svg
   xmlns:dc="http://purl.org/dc/elements/1.1/"
   xmlns:cc="http://creativecommons.org/ns#"
   xmlns:rdf="http://www.w3.org/1999/02/22-rdf-syntax-ns#"
   xmlns:svg="http://www.w3.org/2000/svg"
   xmlns="http://www.w3.org/2000/svg"
   xmlns:sodipodi="http://sodipodi.sourceforge.net/DTD/sodipodi-0.dtd"
   xmlns:inkscape="http://www.inkscape.org/namespaces/inkscape"
   width="24"
   height="24"
   viewBox="0 0 24 24"
   style="fill:rgba(0, 0, 0, 1);transform:;-ms-filter:"
   version="1.1"
   id="svg6"
   sodipodi:docname="active-nav-item.svg"
   inkscape:version="0.92.4 (5da689c313, 2019-01-14)">
  <metadata
     id="metadata12">
    <rdf:RDF>
      <cc:Work
         rdf:about="">
        <dc:format>image/svg+xml</dc:format>
        <dc:type
           rdf:resource="http://purl.org/dc/dcmitype/StillImage" />
      </cc:Work>
    </rdf:RDF>
  </metadata>
  <defs
     id="defs10" />
  <sodipodi:namedview
     pagecolor="#ffffff"
     bordercolor="#666666"
     borderopacity="1"
     objecttolerance="10"
     gridtolerance="10"
     guidetolerance="10"
     inkscape:pageopacity="0"
     inkscape:pageshadow="2"
     inkscape:window-width="1135"
     inkscape:window-height="777"
     id="namedview8"
     showgrid="false"
     inkscape:zoom="9.8333333"
     inkscape:cx="12"
     inkscape:cy="12"
     inkscape:window-x="1641"
     inkscape:window-y="795"
     inkscape:window-maximized="0"
     inkscape:current-layer="svg6" />
  <path
     d="M21,8c-0.202,0-4.85,0.029-9,2.008C7.85,8.029,3.202,8,3,8C2.447,8,2,8.447,2,9v9.883c0,0.271,0.11,0.53,0.305,0.719 c0.195,0.188,0.48,0.305,0.729,0.28l0.127-0.001c0.683,0,4.296,0.098,8.416,2.025c0.016,0.008,0.034,0.005,0.05,0.011 C11.746,21.966,11.871,22,12,22s0.254-0.034,0.374-0.083c0.016-0.006,0.034-0.003,0.05-0.011c4.12-1.928,7.733-2.025,8.416-2.025 l0.127,0.001c0.238,0.025,0.533-0.092,0.729-0.28C21.89,19.413,22,19.153,22,18.883V9C22,8.447,21.553,8,21,8z M4,10.049 c1.485,0.111,4.381,0.48,7,1.692v7.742c-3-1.175-5.59-1.494-7-1.576V10.049z M20,17.907c-1.41,0.082-4,0.401-7,1.576v-7.742 c2.619-1.212,5.515-1.581,7-1.692V17.907z"
     id="path2" />
  <circle
     cx="12"
     cy="5"
     r="3"
     id="circle4" />
  <path
     style="fill:#a80005;fill-opacity:1"
     id="path937"
     d="m 4.8892045,12.587389 c 0.3168973,-0.03507 0.6334021,-0.08536 0.9528704,-0.106439 0.6005011,-0.0262 1.1903056,-0.137552 1.7813531,-0.238663 0.7314182,-0.09842 1.4666434,-0.144197 2.2039243,-0.161061 0.6318767,-0.02682 1.2653377,0.0029 1.8962977,-0.04168 0.473782,-0.04449 0.948619,-0.06872 1.423949,-0.08709 0.396101,-0.02772 0.787264,0.0039 1.18095,0.04177 0.675312,0.04049 1.344814,0.133587 2.018138,0.198742 0.977286,0.08065 1.958691,0.08594 2.938486,0.06758 0.338953,-0.0076 0.677719,-0.02149 1.016685,-0.02849 0.214456,-0.0055 0.428891,-2.15e-4 0.643363,-1.15e-4 0.106539,0.01555 0.199691,-0.02547 0.299926,-0.05229 0,0 -2.143753,1.616732 -2.143753,1.616732 v 0 c -0.106202,0.01046 -0.210484,0.0076 -0.317222,0.006 -0.21557,5.82e-4 -0.431083,0.0068 -0.646656,0.0024 -0.307314,-0.0062 -0.614101,-0.02462 -0.920427,-0.05001 -0.932905,-0.07223 -1.866122,-0.143909 -2.801391,-0.17776 -0.743415,-0.02584 -1.487091,-0.01839 -2.229414,-0.05673 -0.381285,-0.03484 -0.762697,-0.0491 -1.145523,-0.02674 -0.4635,0.0118 -0.926065,0.04468 -1.3891929,0.06515 -0.6185068,0.0096 -1.2372117,-0.0095 -1.8557485,0.0076 -0.7309745,0.02609 -1.4645892,0.06058 -2.1856137,0.192019 -0.621148,0.108672 -1.2414215,0.217446 -1.8694572,0.280264 -0.3394318,0.04274 -0.6807553,0.09143 -1.0072137,0.197131 0,0 2.1556695,-1.64835 2.1556695,-1.64835 z"
     inkscape:connector-curvature="0" />
</svg>
