<svg width="28.565" height="29.787" version="1.1" viewBox="0 0 28.565 29.787" xmlns="http://www.w3.org/2000/svg" xmlns:xlink="http://www.w3.org/1999/xlink">
 <title>bitkan</title>
 <desc>Created with Sketch.</desc>
 <defs>
  <polygon id="path-1" points="21.875 16.329 0.032456 16.329 0.032456 5.8733 21.875 5.8733"/>
  <polygon id="path-3" points="21.88 10.559 0.037672 10.559 0.037672 0.10389 21.88 0.10389"/>
  <polygon id="path-5" points="11.472 7.0687 0 7.0687 0 0.015525 11.472 0.015525"/>
 </defs>
 <g transform="translate(3 2.8904)" fill="none" fill-rule="evenodd">
  <g id="交易英文_白-copy" transform="translate(-31,-13)">
   <g id="编组" transform="translate(31,13)">
    <g id="币看logo">
     <g id="分组" transform="translate(0 .005699)">
      <g transform="translate(.10888 7.5616)">
       <mask id="mask-2" fill="white">
        <use width="100%" height="100%" xlink:href="#path-1"/>
       </mask>
       <path d="m0.3761 9.4386s-1.1014-2.2775 0.63944-3.2846c1.6925-0.97852 2.7916 0.91562 2.7916 0.91562 2.0861 3.4231 4.9829 6.0093 9.6477 6.0093 3.1393 0 7.0019-1.6811 8.4205-3.5134-1.9131 3.9999-5.9942 6.7633-10.72 6.7633-4.7746 0-8.8917-2.8209-10.779-6.8902" fill="#4a5ee0" mask="url(#mask-2)"/>
      </g>
      <g fill="#4a5ee0">
       <path d="m9.9893 14.203h2.5408c0.45402 0 0.82214-0.36756 0.82214-0.82148 0-0.45348-0.36812-0.82312-0.82214-0.82312h-2.5408z"/>
       <path d="m12.53 9.7888h-2.5409v1.6455h2.5409c0.45413 0 0.82203-0.36899 0.82203-0.8228s-0.3679-0.82268-0.82203-0.82268z"/>
       <path d="m12.822 15.301v0.50959h-1.1235v-0.48022h-1.7091v0.48022h-1.1231v-0.48022h-0.77717v-1.1266h0.77717v-4.4148h-0.77717v-1.1254h0.77717v-0.47923h1.1231v0.47923h1.7091v-0.47923h1.1235v0.50904c0.93417 0.14214 1.6542 0.94488 1.6542 1.9182 0 0.54225-0.2232 1.032-0.58108 1.3851 0.35788 0.35397 0.58108 0.84373 0.58108 1.3855 0 0.97381-0.72001 1.7765-1.6542 1.9187zm-7.0175-3.3039c0 3.0292 2.4523 5.4858 5.4777 5.4858 3.0267 0 5.4797-2.4567 5.4797-5.4858 0-3.0296-2.453-5.4852-5.4797-5.4852-3.0255 0-5.4777 2.4556-5.4777 5.4852z"/>
      </g>
      <g transform="translate(.54439)">
       <mask id="mask-4" fill="white">
        <use width="100%" height="100%" xlink:href="#path-3"/>
       </mask>
       <path d="m21.536 6.9934s1.1008 2.2763-0.63966 3.2847c-1.6926 0.97874-2.7917-0.91441-2.7917-0.91441-2.0856-3.4241-4.9826-6.0112-9.6478-6.0112-3.1397 0-7.0015 1.6818-8.4194 3.5134 1.913-4.0004 5.9935-6.7621 10.719-6.7621 4.7753 0 8.8914 2.8204 10.779 6.8895" fill="#4a5ee0" mask="url(#mask-4)"/>
      </g>
      <g transform="translate(0 4.1644)">
       <mask id="mask-6" fill="white">
        <use width="100%" height="100%" xlink:href="#path-5"/>
       </mask>
       <path d="m1.4188 3.1478c-1.7815 1.7249-1.3801 3.9209-1.3801 3.9209s3.6419-6.3782 11.433-6.9585c0 0-5.9514-0.92986-10.053 3.0376" fill="#f1915c" mask="url(#mask-6)"/>
      </g>
      <path d="m22.526 12.761s-3.6411 6.3788-11.432 6.9588c0 0 5.9514 0.92954 10.053-3.0387 1.783-1.725 1.3796-3.9201 1.3796-3.9201z" fill="#f1915c"/>
     </g>
    </g>
   </g>
  </g>
 </g>
</svg>
