<svg width="178.89" height="202.7" version="1.1" viewBox="0 0 178.89 202.7" xmlns="http://www.w3.org/2000/svg">
 <defs>
  <style>.cls-1{fill:#f0b928;}.cls-2{fill:#464547;}.cls-3{fill:none;}</style>
 </defs>
 <title>bitrue_logo-freelogovectors.net</title>
 <g fill="#f0b928">
  <path class="cls-1" d="m82.81 11.817a13.6 13.6 0 0 1 14 0.25q18.62 10.92 37.24 21.85 0 13.68 0 27.35c-12.65-7.45-25.24-14.83-37.86-22.18a12.47 12.47 0 0 0-10.06-1.47 37.08 37.08 0 0 0-6.59 3.41q-34.73 20.35-69.54 40.72v-19.75c0-5.06 3.25-9.62 7.57-12q32.63-19.18 65.24-38.18z"/>
  <path class="cls-1" d="m145.61 40.757q7.8 4.59 15.6 9.2a14.87 14.87 0 0 1 7.06 8.48c0.8 2.56 0.59 5.27 0.62 7.91v73.46a14.18 14.18 0 0 1-7.15 12.4c-12.36 7.38-24.79 14.63-37.18 22-7.72-4.59-15.55-9-23.17-13.77q18.83-11.08 37.67-22.22a12.83 12.83 0 0 0 6.57-11.19c0-28.79-0.06-57.53-0.02-86.27z"/>
  <path class="cls-1" d="m56.11 68.707c6.63-4 13.33-7.85 20-11.77q0 13.36 0 26.75a33.22 33.22 0 0 1 23.41-1.22 33.7 33.7 0 0 1 21.2 20.64 34.48 34.48 0 0 1-0.88 25.46 33.71 33.71 0 0 1-19.37 18.11 33 33 0 0 1-28.46-3.11 34 34 0 0 1-15.84-27.75c-0.11-15.7 0.02-31.41-0.06-47.11zm28.49 33a14 14 0 0 0-8.53 15.88c1.31 7.12 8.87 12.36 16 10.74 7.84-1.37 13-10.32 10.39-17.83-2.05-7.26-10.8-11.68-17.86-8.75z"/>
  <path class="cls-1" d="m10.03 95.527c7.78-4.59 15.55-9.21 23.36-13.71v45.23a13 13 0 0 0 7 11.37c24.19 14.22 48.33 28.54 72.56 42.71q-8.34 5-16.77 9.89c-5.07 3-11.49 1.7-16-1.67-21-12.39-42-24.69-63-37.08a14.24 14.24 0 0 1-7.17-12.48q-0.02-22.15 0.02-44.26z"/>
 </g>
 <rect class="cls-3" x="-24.97" y="-7.9627" width="715.65" height="221.74" fill="none"/>
</svg>
