<svg version="1.1" viewBox="0 0 276.2 276.2" xmlns="http://www.w3.org/2000/svg">
 <g id="Coin_Gecko_AI" transform="translate(.098664 .10132)">
  <path class="cls-2" transform="translate(-34,-45.61)" d="M 310,183 A 138,138 0 1 1 171.4,45.61 138,138 0 0 1 310,183 Z" fill="#8dc63f"/>
  <path class="cls-3" transform="translate(-34,-45.61)" d="m299.65 183.05a127.63 127.63 0 1 1-128.2-127.05 127.64 127.64 0 0 1 128.2 127.05z" fill="#f9e988"/>
  <path class="cls-1" transform="translate(-34,-45.61)" d="m174.35 64.27a70.18 70.18 0 0 1 24.53 0 74.66 74.66 0 0 1 23.43 7.85c7.28 4 13.57 9.43 19.83 14.52s12.49 10.3 18.42 16a93.38 93.38 0 0 1 15.71 19 108.07 108.07 0 0 1 11 22.17c5.33 15.66 7.18 32.53 4.52 48.62h-0.79c-2.67-15.95-6.29-31.15-12-45.61a178 178 0 0 0-9.44-21.25 208.8 208.8 0 0 0-12.42-19.93 72.3 72.3 0 0 0-16.64-16.8c-6.48-4.62-13.93-7.61-21.14-10.45s-14.36-5.78-21.88-7.94-15.16-3.78-23.14-5.35z" fill="#fff"/>
  <path class="cls-4" transform="translate(-34,-45.61)" d="m236.74 138c-9.26-2.68-18.86-6.48-28.58-10.32-0.56-2.44-2.72-5.48-7.09-9.19-6.35-5.51-18.28-5.37-28.59-2.93-11.38-2.68-22.62-3.63-33.41-1-88.25 24.31-38.21 83.62-70.61 143.24 4.61 9.78 54.3 66.84 126.2 51.53 0 0-24.59-59.09 30.9-87.45 45.01-23.09 77.53-65.81 11.18-83.88z" fill="#8bc53f"/>
  <path class="cls-1" transform="translate(-34,-45.61)" d="m247.64 176.81a5.35 5.35 0 1 1-5.38-5.32 5.36 5.36 0 0 1 5.38 5.32z" fill="#fff"/>
  <path class="cls-5" transform="translate(-34,-45.61)" d="m172.48 115.52c6.43 0.46 29.68 8 35.68 12.12-5-14.5-21.83-16.43-35.68-12.12z" fill="#009345"/>
  <path class="cls-1" transform="translate(-34,-45.61)" d="m178.6 152.19a24.68 24.68 0 1 1-24.68-24.67 24.67 24.67 0 0 1 24.68 24.67z" fill="#fff"/>
  <path class="cls-6" transform="translate(-34,-45.61)" d="m171.28 152.41a17.36 17.36 0 1 1-17.36-17.36 17.36 17.36 0 0 1 17.36 17.36z" fill="#58595b"/>
  <path class="cls-4" transform="translate(-34,-45.61)" d="m267.63 187.69c-20 14.09-42.74 24.78-75 24.78-15.1 0-18.16-16-28.14-8.18-5.15 4.06-23.31 13.14-37.72 12.45s-37.77-9.14-44.28-39.9c-2.58 30.76-3.9 53.42-15.45 79.39 23 36.83 77.84 65.24 127.62 53-5.35-37.35 27.29-73.93 45.68-92.65 7-7.09 20.3-18.66 27.29-28.91z" fill="#8bc53f"/>
  <path class="cls-6" transform="translate(-34,-45.61)" d="m266.85 188.61c-6.21 5.66-13.6 9.85-21.12 13.55a134.24 134.24 0 0 1-23.7 8.63c-8.16 2.11-16.67 3.7-25.29 2.92s-17.43-3.71-23.14-10.17l0.27-0.31c7 4.54 15.08 6.14 23.12 6.37a108.57 108.57 0 0 0 24.3-2 132.34 132.34 0 0 0 23.61-7.3c7.63-3.15 15.18-6.8 21.68-12z" fill="#58595b"/>
 </g>
</svg>
