<svg id="Capa_1" enable-background="new 0 0 512 512" height="512" viewBox="0 0 512 512" width="512" xmlns="http://www.w3.org/2000/svg"><g><path d="m395.286 203.499c0-20.677-16.822-37.5-37.5-37.5-9.521 0-18.225 3.566-24.845 9.434-1.857-4.976-4.784-9.545-8.664-13.425-7.1-7.1-16.508-11.009-26.491-11.009-9.983 0-19.391 3.91-26.49 11.009-.251.252-.5.507-.744.765-6.416-11.489-18.699-19.273-32.766-19.273-8.436 0-16.228 2.801-22.5 7.52v-113.52c0-20.678-16.822-37.5-37.5-37.5s-37.5 16.822-37.5 37.5v22.5h15v-22.5c0-12.407 10.093-22.5 22.5-22.5s22.5 10.093 22.5 22.5v188.5h-27.036l-17.965 23.954v-174.954h-15v194.954l-15.561 20.748-8.01 88.116 60.286 60.289v72.893h75.393v-15h-60.393v-52.153l51.666 8.573 2.455-14.798-58.019-9.627-55.813-55.816 6.99-76.882 41.471-55.297h79.535v7.5c0 9.963-3.915 19.365-11.024 26.475-7.11 7.109-16.512 11.025-26.475 11.025h-20.557l-8.792 35.168 14.552 3.638 5.885-23.541c34.517 2.948 61.71 31.967 61.71 67.234h15c0-31.709-17.992-59.279-44.294-73.085 4.948-2.498 9.533-5.789 13.577-9.833 6.642-6.642 11.29-14.723 13.644-23.52 6.546 5.572 15.024 8.938 24.274 8.938 9.522 0 18.227-3.567 24.848-9.436 5.315 14.256 19.068 24.437 35.153 24.437 8.435 0 16.229-2.8 22.5-7.518v88.799l-20.686 62.059-55.935 9.282 2.455 14.798 51.666-8.573v52.153h-60.393v15h75.393v-74.783l22.5-67.502zm-135 22.501h-45v-45c0-12.407 10.093-22.5 22.5-22.5s22.5 10.093 22.5 22.5zm60 7.5c0 12.406-10.094 22.5-22.5 22.5s-22.5-10.094-22.5-22.5v-45c0-5.977 2.35-11.618 6.616-15.885 4.266-4.266 9.907-6.615 15.884-6.615s11.618 2.349 15.885 6.616c4.266 4.266 6.616 9.907 6.616 15.884v45zm60 15c0 12.406-10.094 22.5-22.5 22.5-12.407 0-22.5-10.094-22.5-22.5v-45c0-12.406 10.093-22.5 22.5-22.5 12.406 0 22.5 10.093 22.5 22.5z"/><path d="m267.394 497h15v15h-15z"/><path d="m350.286 345.998h15v15h-15z"/><path d="m350.286 315.998h15v15h-15z"/></g></svg>