<svg id="SvgjsSvg1011" width="288" height="288" xmlns="http://www.w3.org/2000/svg" version="1.1" xmlns:xlink="http://www.w3.org/1999/xlink" xmlns:svgjs="http://svgjs.com/svgjs"><defs id="SvgjsDefs1012"></defs><g id="SvgjsG1013"><svg xmlns="http://www.w3.org/2000/svg" width="288" height="288" enable-background="new 0 0 512 512" viewBox="0 0 512 512"><path d="M319.715 89.922c24.803 1.658 46.254-17.104 47.912-41.907s-17.104-46.255-41.907-47.913-46.254 17.104-47.912 41.907c-1.659 24.803 17.104 46.254 41.907 47.913zM180.651 280.102c-2.63-1.1-5.04-2.506-7.207-4.156l-29.212 63.346-21.873-10.087c-8.513-3.926-18.596-.207-22.521 8.306l-57.736 125.2c-3.925 8.513-.207 18.595 8.306 22.521l7.443 3.433c-1.247 1.16-2.297 2.573-3.055 4.216-3.116 6.758-.164 14.762 6.593 17.879 6.758 3.116 14.762.164 17.878-6.594.757-1.642 1.15-3.358 1.223-5.061l7.443 3.433c8.513 3.925 18.596.207 22.521-8.306l57.736-125.201c3.516-7.625.886-16.496-5.816-21.087l30.124-65.324c-3.961-.091-7.971-.898-11.847-2.518z" fill="#aacdff" class="color000 svgShape"></path><path d="m455.933 193.212-61.003-15.353-27.55-31.735.557-8.329c1.12-16.755-11.554-31.246-28.309-32.366l-54.101-3.618c-16.141-1.079-30.176 10.647-32.185 26.488l12.36-3.551-49.924 26.673c-4.171 2.229-7.446 5.828-9.27 10.192l-32.207 77.031c-4.375 10.465.561 22.494 11.026 26.87 10.398 4.348 22.466-.495 26.87-11.026l29.386-70.285 43.476-23.228-31.897 26.955-4.602 11.007-5.806 86.838.292.019c.027.994 2.936 59.118 4.354 87.639l-48.014 103.551c-5.726 12.348-.357 26.999 11.991 32.724 12.346 5.725 26.998.357 32.724-11.99l50.573-109.07c1.681-3.624 2.455-7.603 2.256-11.593l-4.384-87.951 11.11.743 27.269 81.093 10.35 118.554c1.184 13.572 13.149 23.594 26.694 22.408 13.56-1.183 23.591-13.135 22.408-26.694l-10.605-121.481c-.17-1.944-.57-3.862-1.192-5.712l-21.727-64.61.678.045 5.961-89.15 4.656 5.364c2.755 3.174 6.42 5.427 10.496 6.452l67.266 16.93c10.976 2.766 22.156-3.886 24.928-14.903 2.768-11.002-3.905-22.162-14.905-24.931z" fill="#aacdff" class="color000 svgShape"></path></svg></g></svg>