<?xml version="1.0" encoding="UTF-8" standalone="no"?>
<svg
   xmlns:dc="http://purl.org/dc/elements/1.1/"
   xmlns:cc="http://creativecommons.org/ns#"
   xmlns:rdf="http://www.w3.org/1999/02/22-rdf-syntax-ns#"
   xmlns:svg="http://www.w3.org/2000/svg"
   xmlns="http://www.w3.org/2000/svg"
   xmlns:sodipodi="http://sodipodi.sourceforge.net/DTD/sodipodi-0.dtd"
   xmlns:inkscape="http://www.inkscape.org/namespaces/inkscape"
   width="24"
   height="24"
   viewBox="0 0 24 24"
   fill="none"
   version="1.1"
   id="svg4"
   sodipodi:docname="ic_telegram.svg"
   inkscape:version="0.92.4 (5da689c313, 2019-01-14)">
  <metadata
     id="metadata10">
    <rdf:RDF>
      <cc:Work
         rdf:about="">
        <dc:format>image/svg+xml</dc:format>
        <dc:type
           rdf:resource="http://purl.org/dc/dcmitype/StillImage" />
      </cc:Work>
    </rdf:RDF>
  </metadata>
  <defs
     id="defs8" />
  <sodipodi:namedview
     pagecolor="#ffffff"
     bordercolor="#666666"
     borderopacity="1"
     objecttolerance="10"
     gridtolerance="10"
     guidetolerance="10"
     inkscape:pageopacity="0"
     inkscape:pageshadow="2"
     inkscape:window-width="1078"
     inkscape:window-height="1377"
     id="namedview6"
     showgrid="false"
     inkscape:zoom="9.8333333"
     inkscape:cx="-21.050848"
     inkscape:cy="12"
     inkscape:window-x="3633"
     inkscape:window-y="450"
     inkscape:window-maximized="0"
     inkscape:current-layer="svg4" />
  <path
     d="M19.5875 5.008C20.431 5.008 20.653 5.646 20.4035 7.144C20.118 8.857 19.2955 14.5285 18.6395 18.059C18.3885 19.41 17.936 19.9925 17.2775 19.9925C16.9155 19.9925 16.4915 19.8165 16.0045 19.495C15.3445 19.059 12.0125 16.8555 11.289 16.338C10.629 15.8665 9.71854 15.299 10.8605 14.182C11.267 13.784 13.9305 11.2405 16.0055 9.261C16.227 9.0495 16.0415 8.727 15.7955 8.727C15.7395 8.727 15.68 8.744 15.622 8.7825C12.825 10.6375 8.94654 13.212 8.45304 13.5475C7.95955 13.8825 7.47854 14.0975 6.83754 14.0975C6.51005 14.0975 6.14054 14.0415 5.70604 13.9165C4.73454 13.6375 3.78605 13.305 3.41655 13.178C1.99405 12.69 2.33155 12.0575 3.71305 11.4495C9.25204 9.013 16.4195 6.042 17.409 5.631C18.373 5.2305 19.089 5.008 19.5875 5.008ZM19.5875 3.508C18.9035 3.508 18.08 3.7285 16.8345 4.245L16.685 4.307C11.3675 6.515 6.54605 8.564 3.10905 10.076C2.57205 10.3125 0.938545 11.031 1.00204 12.534C1.02904 13.1825 1.38604 14.0665 2.93005 14.596L3.04404 14.635C3.47504 14.7835 4.37254 15.093 5.29254 15.3575C5.85254 15.5185 6.35854 15.5965 6.83804 15.5965C7.67004 15.5965 8.31454 15.359 8.81854 15.0825C8.81604 15.1665 8.81805 15.251 8.82454 15.336C8.91554 16.492 9.80954 17.126 10.3435 17.505L10.418 17.558C11.2065 18.122 14.775 20.4795 15.179 20.746C15.9395 21.248 16.626 21.4915 17.2785 21.4915C18.3045 21.4915 19.63 20.9435 20.115 18.3325C20.5755 15.856 21.1075 12.3965 21.496 9.8705C21.6615 8.7925 21.7975 7.9085 21.884 7.39C22.0585 6.343 22.1385 5.157 21.41 4.2975C21.104 3.9375 20.54 3.508 19.5875 3.508Z"
     fill="#AACDFF"
     id="path2"
     style="fill:#aacdff;fill-opacity:1" />
</svg>
