<?xml version="1.0" encoding="UTF-8" standalone="no"?>
<svg
   xmlns:dc="http://purl.org/dc/elements/1.1/"
   xmlns:cc="http://creativecommons.org/ns#"
   xmlns:rdf="http://www.w3.org/1999/02/22-rdf-syntax-ns#"
   xmlns:svg="http://www.w3.org/2000/svg"
   xmlns="http://www.w3.org/2000/svg"
   xmlns:sodipodi="http://sodipodi.sourceforge.net/DTD/sodipodi-0.dtd"
   xmlns:inkscape="http://www.inkscape.org/namespaces/inkscape"
   width="24"
   height="24"
   viewBox="0 0 24 24"
   fill="none"
   version="1.1"
   id="svg12"
   sodipodi:docname="Icon_BinanceYellow.svg"
   inkscape:version="1.0.2 (e86c870879, 2021-01-15)">
  <metadata
     id="metadata18">
    <rdf:RDF>
      <cc:Work
         rdf:about="">
        <dc:format>image/svg+xml</dc:format>
        <dc:type
           rdf:resource="http://purl.org/dc/dcmitype/StillImage" />
      </cc:Work>
    </rdf:RDF>
  </metadata>
  <defs
     id="defs16" />
  <sodipodi:namedview
     pagecolor="#ffffff"
     bordercolor="#666666"
     borderopacity="1"
     objecttolerance="10"
     gridtolerance="10"
     guidetolerance="10"
     inkscape:pageopacity="0"
     inkscape:pageshadow="2"
     inkscape:window-width="1920"
     inkscape:window-height="1011"
     id="namedview14"
     showgrid="false"
     inkscape:zoom="35.166667"
     inkscape:cx="6.5260664"
     inkscape:cy="12"
     inkscape:window-x="-8"
     inkscape:window-y="-8"
     inkscape:window-maximized="1"
     inkscape:current-layer="svg12" />
  <path
     d="M7.38022 10.0293C6.43214 9.0843 5.54489 8.19921 4.67578 7.33274C7.11608 4.89046 9.56682 2.43774 12.0026 0C14.4256 2.42048 16.8746 4.86685 19.3017 7.29142C18.4253 8.1647 17.5344 9.05296 16.6327 9.95213C15.1264 8.44262 13.5797 6.89224 12.0371 5.3464C10.4681 6.92403 8.92418 8.47668 7.38022 10.0293Z"
     fill="#0A0001"
     id="path2"
     style="fill:#f0b90b;fill-opacity:1" />
  <path
     d="M7.37386 14.0252C8.90149 15.5537 10.4455 17.0987 11.989 18.6427C13.5329 17.0941 15.0787 15.5437 16.6032 14.0147C17.5344 14.9434 18.4253 15.8317 19.3076 16.7113C16.8823 19.1327 14.4324 21.5781 12.0071 24C9.57998 21.5827 7.1238 19.1363 4.67578 16.6986C5.55941 15.823 6.44894 14.9416 7.37386 14.0252Z"
     fill="#0A0001"
     id="path4"
     style="fill:#f0b90b;fill-opacity:1" />
  <path
     d="M2.65769 9.37903C3.51137 10.2351 4.3959 11.1229 5.26864 11.9984C4.38773 12.8758 3.49593 13.764 2.6114 14.645C1.75137 13.7813 0.867289 12.893 0 12.022C0.873643 11.1528 1.76589 10.2659 2.65769 9.37903Z"
     fill="#0A0001"
     id="path6"
     style="fill:#f0b90b;fill-opacity:1" />
  <path
     d="M21.347 14.6501C20.4797 13.7859 19.592 12.9012 18.7192 12.032C19.607 11.1478 20.4983 10.2596 21.3747 9.38721C22.2297 10.2391 23.1206 11.127 24.0002 12.0039C23.1211 12.8812 22.2302 13.7695 21.347 14.6501Z"
     fill="#0A0001"
     id="path8"
     style="fill:#f0b90b;fill-opacity:1" />
  <path
     d="M9.36865 11.9884C10.2291 11.1242 11.1082 10.2414 11.961 9.38446C12.8433 10.26 13.7351 11.1446 14.621 12.0243C13.7559 12.8835 12.8682 13.7654 11.9964 14.631C11.1327 13.7618 10.25 12.8744 9.36865 11.9884Z"
     fill="#0A0001"
     id="path10"
     style="fill:#f0b90b;fill-opacity:1" />
</svg>
