<?xml version="1.0" encoding="UTF-8" standalone="no"?>
<svg
   xmlns:dc="http://purl.org/dc/elements/1.1/"
   xmlns:cc="http://creativecommons.org/ns#"
   xmlns:rdf="http://www.w3.org/1999/02/22-rdf-syntax-ns#"
   xmlns:svg="http://www.w3.org/2000/svg"
   xmlns="http://www.w3.org/2000/svg"
   xmlns:sodipodi="http://sodipodi.sourceforge.net/DTD/sodipodi-0.dtd"
   xmlns:inkscape="http://www.inkscape.org/namespaces/inkscape"
   width="40"
   height="40"
   viewBox="0 0 40 40"
   fill="none"
   version="1.1"
   id="svg4"
   sodipodi:docname="Logo_SpartanProtocol_Red.svg"
   inkscape:version="0.92.4 (5da689c313, 2019-01-14)">
  <metadata
     id="metadata10">
    <rdf:RDF>
      <cc:Work
         rdf:about="">
        <dc:format>image/svg+xml</dc:format>
        <dc:type
           rdf:resource="http://purl.org/dc/dcmitype/StillImage" />
        <dc:title />
      </cc:Work>
    </rdf:RDF>
  </metadata>
  <defs
     id="defs8" />
  <sodipodi:namedview
     pagecolor="#ffffff"
     bordercolor="#666666"
     borderopacity="1"
     objecttolerance="10"
     gridtolerance="10"
     guidetolerance="10"
     inkscape:pageopacity="0"
     inkscape:pageshadow="2"
     inkscape:window-width="1573"
     inkscape:window-height="1120"
     id="namedview6"
     showgrid="false"
     inkscape:zoom="11.8"
     inkscape:cx="7.3080346"
     inkscape:cy="24.067797"
     inkscape:window-x="1640"
     inkscape:window-y="454"
     inkscape:window-maximized="0"
     inkscape:current-layer="svg4" />
  <circle
     style="fill:#a80005;fill-opacity:1;stroke-width:0.8645463"
     id="path817"
     cx="20"
     cy="20"
     ry="18.559322"
     rx="18.050848" />
  <ellipse
     style="fill:#a80005;fill-opacity:1"
     id="path818"
     cx="20"
     cy="20"
     rx="19.915255"
     ry="19.957626" />
  <ellipse
     style="fill:#a80005;fill-opacity:1;stroke-width:0.99428886"
     id="path816"
     cx="20"
     cy="20"
     rx="9.6610174"
     ry="18.38983" />
  <path
     d="M 38.495717,19.982517 C 38.713555,29.703895 30.595206,38.506934 19.994991,38.499996 9.412148,38.489544 1.3878978,29.689927 1.5011849,19.947644 1.6197017,9.6692658 9.7485247,1.4930207 20.071674,1.5000045 30.293656,1.5070345 38.495717,9.7338598 38.495717,19.982517 Z m -21.202279,15.593 c 0.09768,-0.0209 0.19351,-0.04191 0.291098,-0.06105 -0.13246,-5.508467 -0.643153,-11.034416 0.759886,-16.40145 -0.242257,-0.211178 -0.353811,-0.361398 -0.501904,-0.429478 -0.763402,-0.352702 -1.525046,-0.710585 -2.309354,-1.016112 -1.376861,-0.536038 -1.908458,-1.457893 -1.660928,-3.111238 0.303214,0.146613 0.575072,0.289803 0.857474,0.411995 0.928977,0.4033 1.842229,0.85729 2.797291,1.182058 1.267064,0.431235 1.514594,0.759425 1.317661,2.112515 -0.134217,0.920097 -0.305065,1.83853 -0.374717,2.765564 -0.06447,0.846837 0.735467,2.004382 1.378619,2.1423 0.557682,0.120435 1.418671,-0.600603 1.690621,-1.5207 0.109798,-0.370185 0.06095,-0.801419 0.0209,-1.199447 -0.09065,-0.92537 -0.237077,-1.84371 -0.327727,-2.76908 -0.07844,-0.790875 0.33818,-1.206477 1.071889,-1.466587 1.035259,-0.364913 2.037496,-0.82584 3.05185,-1.24838 0.27713,-0.115255 0.550745,-0.244385 0.860989,-0.38406 0.142913,1.866372 -0.331149,2.57002 -1.91373,3.156655 -0.855718,0.317737 -1.671382,0.742035 -2.616083,1.169755 1.409976,5.580061 0.874956,11.119885 0.956819,16.668498 0.40959,-0.4662 0.695414,-0.956728 0.948124,-1.463073 0.219687,-0.44178 0.395715,-0.904372 0.599585,-1.354847 0.969029,-2.144058 1.978203,-4.270632 2.88794,-6.439017 0.282402,-0.675712 0.404409,-1.463165 0.413104,-2.201685 0.04006,-3.636729 0.03663,-7.273551 0.0069,-10.910373 -0.0069,-0.867742 -0.02785,-1.779145 -0.291004,-2.589223 C 26.738119,9.1699239 26.316412,7.6107994 25.446635,6.4078466 23.881536,4.2428754 21.490321,3.6510049 18.912625,3.9879727 16.854224,4.2568429 15.034658,5.1909264 14.100501,7.0643191 13.119262,9.0319976 12.497015,11.176055 12.51274,13.443969 c 0.02442,3.579195 -0.0053,7.156633 0.0209,10.735827 0.0035,0.57091 0.06623,1.187237 0.289339,1.70052 1.291484,2.983864 2.633473,5.944974 3.970282,8.909599 0.12543,0.279257 0.33115,0.525492 0.500148,0.785602 z"
     id="path2"
     inkscape:connector-curvature="0"
     style="fill:#000000;stroke-width:0.92499959" />
</svg>
