<svg width="40" height="40" viewBox="0 0 40 40" fill="none" xmlns="http://www.w3.org/2000/svg">
<path d="M39.9954 19.9811C40.2309 30.4907 31.4543 40.0075 19.9946 40C8.55368 39.9887 -0.121192 30.4756 0.00128081 19.9434C0.129407 8.83164 8.91733 -0.00754518 20.0775 4.83304e-06C31.1283 0.00755485 39.9954 8.90147 39.9954 19.9811ZM17.074 36.8384C17.1796 36.8158 17.2832 36.7931 17.3887 36.7724C17.2455 30.8173 16.6934 24.8433 18.2102 19.0411C17.9483 18.8128 17.8277 18.6504 17.6676 18.5768C16.8423 18.1955 16.0189 17.8086 15.171 17.4783C13.6825 16.8988 13.1078 15.9022 13.3754 14.1148C13.7032 14.2733 13.9971 14.4281 14.3024 14.5602C15.3067 14.9962 16.294 15.487 17.3265 15.8381C18.6963 16.3043 18.9639 16.6591 18.751 18.1219C18.6059 19.1166 18.4212 20.1095 18.3459 21.1117C18.2762 22.0272 19.141 23.2786 19.8363 23.4277C20.4392 23.5579 21.37 22.7784 21.664 21.7837C21.7827 21.3835 21.7299 20.9173 21.6866 20.487C21.5886 19.4866 21.4303 18.4938 21.3323 17.4934C21.2475 16.6384 21.6979 16.1891 22.4911 15.9079C23.6103 15.5134 24.6938 15.0151 25.7904 14.5583C26.09 14.4337 26.3858 14.2941 26.7212 14.1431C26.8757 16.1608 26.3632 16.9215 24.6523 17.5557C23.7272 17.8992 22.8454 18.3579 21.8241 18.8203C23.3484 24.8528 22.77 30.8418 22.8585 36.8403C23.3013 36.3363 23.6103 35.806 23.8835 35.2586C24.121 34.781 24.3113 34.2809 24.5317 33.7939C25.5793 31.476 26.6703 29.177 27.6538 26.8328C27.9591 26.1023 28.091 25.251 28.1004 24.4526C28.1437 20.521 28.14 16.5893 28.1079 12.6576C28.1004 11.7195 28.0778 10.7342 27.7933 9.85844C27.2845 8.29181 26.8286 6.60627 25.8883 5.30578C24.1963 2.96527 21.6112 2.32541 18.8245 2.6897C16.5992 2.98037 14.6321 3.99019 13.6222 6.01548C12.5614 8.1427 11.8887 10.4606 11.9057 12.9124C11.9321 16.7818 11.9 20.6493 11.9283 24.5187C11.9321 25.1359 11.9999 25.8022 12.2411 26.3571C13.6373 29.5829 15.0881 32.7841 16.5333 35.9891C16.6689 36.291 16.8913 36.5572 17.074 36.8384Z" fill="#B70000"/>
</svg>
