<svg xmlns="http://www.w3.org/2000/svg" viewBox="0 0 121.378 121.333"><g fill="#FFF"><path d="M25.222 57.766a5.143 5.143 0 015.145-5.143h.023l8.568.028a5.15 5.15 0 015.151 5.151v32.399c.965-.285 2.2-.591 3.559-.91a4.293 4.293 0 003.309-4.178V44.926a5.152 5.152 0 015.151-5.152h8.594a5.15 5.15 0 015.15 5.152v37.3s2.15-.87 4.244-1.754a4.3 4.3 0 002.625-3.957V32.048a5.151 5.151 0 015.149-5.151h8.585a5.151 5.151 0 015.146 5.151v36.618c7.442-5.395 14.985-11.882 20.972-19.684a8.643 8.643 0 001.315-8.072C106.914 9.278 72.357-7.452 40.726 3.543 9.094 14.538-7.636 49.093 3.359 80.726a60.577 60.577 0 004.695 10.292 7.668 7.668 0 007.316 3.79c1.624-.143 3.646-.346 6.05-.627a4.29 4.29 0 003.805-4.258V57.766M25.039 109.727c27.089 19.707 65.025 13.723 84.733-13.367a60.656 60.656 0 0011.606-35.694c0-1.4-.065-2.778-.158-4.152-22.163 33.055-63.085 48.508-96.181 53.213"/></g></svg>