<svg xmlns="http://www.w3.org/2000/svg" viewBox="0 0 256 293"><path fill="#FFF" d="M226.012 0H29.989C13.458 0 0 13.458 0 30.135v197.778c0 16.677 13.458 30.135 29.989 30.135h165.888l-7.754-27.062 18.725 17.407 17.701 16.385L256 292.571V30.135C256 13.458 242.541 0 226.012 0zm-56.467 191.049s-5.266-6.29-9.654-11.849c19.163-5.413 26.478-17.408 26.478-17.408-5.998 3.95-11.703 6.729-16.823 8.631-7.314 3.071-14.336 5.12-21.211 6.29-14.044 2.633-26.917 1.902-37.888-.146-8.338-1.609-15.506-3.949-21.504-6.29-3.365-1.316-7.022-2.925-10.679-4.974-.438-.293-.877-.439-1.316-.731a2.022 2.022 0 01-.585-.438c-2.633-1.463-4.096-2.487-4.096-2.487s7.021 11.703 25.6 17.262c-4.389 5.56-9.801 12.142-9.801 12.142-32.329-1.023-44.617-22.235-44.617-22.235 0-47.104 21.065-85.284 21.065-85.284 21.065-15.799 41.106-15.36 41.106-15.36l1.463 1.756c-26.333 7.603-38.475 19.16-38.475 19.16s3.218-1.755 8.631-4.242c15.653-6.875 28.087-8.777 33.207-9.216.877-.146 1.609-.293 2.487-.293a123.809 123.809 0 0129.55-.292c13.896 1.609 28.818 5.705 44.031 14.043 0 0-11.557-10.971-36.424-18.578l2.047-2.341s20.041-.438 41.107 15.36c0 0 21.064 38.181 21.064 85.284.001 0-12.433 21.212-44.763 22.236zm-68.023-68.315c-8.338 0-14.921 7.314-14.921 16.238 0 8.923 6.729 16.237 14.921 16.237 8.338 0 14.921-7.314 14.921-16.237.147-8.924-6.583-16.238-14.921-16.238m53.394 0c-8.338 0-14.92 7.314-14.92 16.238 0 8.923 6.729 16.237 14.92 16.237 8.339 0 14.922-7.314 14.922-16.237 0-8.924-6.583-16.238-14.922-16.238"/></svg>