<svg viewBox="0 0 671.437 654.876" xmlns="http://www.w3.org/2000/svg"><path fill-rule="evenodd" clip-rule="evenodd" fill="#fff" d="M335.703 0C150.328 0 0 150.32 0 335.75c0 148.328 96.188 274.156 229.609 318.555 16.781 3.062 22.906-7.281 22.906-16.18 0-7.969-.281-29.102-.453-57.117C158.671 601.297 138.968 536 138.968 536c-15.266-38.766-37.266-49.109-37.266-49.109-30.484-20.812 2.297-20.406 2.297-20.406 33.704 2.375 51.422 34.617 51.422 34.617 29.953 51.281 78.578 36.469 97.719 27.898 3.047-21.695 11.719-36.516 21.312-44.883-74.562-8.492-152.922-37.273-152.922-165.938 0-36.648 13.078-66.617 34.547-90.086-3.453-8.492-14.969-42.633 3.297-88.844 0 0 28.188-9.031 92.312 34.422 26.781-7.445 55.5-11.195 84.062-11.312 28.5.117 57.219 3.867 84.047 11.312 64.094-43.453 92.234-34.422 92.234-34.422 18.312 46.211 6.781 80.352 3.344 88.844 21.5 23.469 34.5 53.438 34.5 90.086 0 128.984-78.5 157.359-153.281 165.656 12.047 10.383 22.781 30.875 22.781 62.188 0 44.883-.406 81.07-.406 92.102 0 8.977 6.031 19.398 23.078 16.141C575.359 609.79 671.437 484.032 671.437 335.75 671.437 150.321 521.125 0 335.703 0z"/></svg>