<?xml version="1.0" encoding="UTF-8" standalone="no"?>
<!-- Generator: Adobe Illustrator 16.0.0, SVG Export Plug-In . SVG Version: 6.00 Build 0)  -->

<svg
   version="1.1"
   id="Layer_1"
   x="0px"
   y="0px"
   viewBox="0 0 542.99982 450.00156"
   enable-background="new 0 0 1000 1000"
   xml:space="preserve"
   xmlns="http://www.w3.org/2000/svg"
   xmlns:svg="http://www.w3.org/2000/svg"><defs
   id="defs829" />
<path
   fill="#ffffff"
   d="m 542.75854,39.041548 c -7.524,79.062002 -40.084,270.924002 -56.647,359.475002 -7.01,37.469 -20.81,50.031 -34.171,51.262 -29.036,2.672 -51.085,-19.189 -79.207,-37.624 -44.007,-28.847 -68.867,-46.804 -111.583,-74.953 -49.366,-32.531 -17.364,-50.411 10.77,-79.632 7.362,-7.646 135.295,-124.012 137.771,-134.568 0.31,-1.32 0.597,-6.241 -2.326,-8.84 -2.924,-2.598 -7.239,-1.709 -10.353,-1.003 -4.414,1.002 -74.715,47.468 -210.903,139.399 -19.955,13.702 -38.029,20.379 -54.223,20.028 -17.853,-0.386 -52.194003,-10.095 -77.723003,-18.393 -31.312,-10.179 -56.1989995,-15.56 -54.03199952,-32.847 1.12900002,-9.003 13.52799952,-18.211 37.19699952,-27.623 C 183.08854,130.21655 280.28554,88.349548 328.91654,68.121548 c 138.855,-57.755 167.708,-67.78699977 186.515,-68.11799977 4.136,-0.073 13.384,0.951 19.375,5.81199997 5.059,4.105 6.45,9.6489998 7.116,13.5409998 0.666,3.892 1.495,12.757 0.836,19.685 z"
   id="path824" />
</svg>
