<?xml version="1.0" encoding="utf-8"?>
<!-- Generator: Adobe Illustrator 16.0.0, SVG Export Plug-In . SVG Version: 6.00 Build 0)  -->
<!DOCTYPE svg PUBLIC "-//W3C//DTD SVG 1.1//EN" "http://www.w3.org/Graphics/SVG/1.1/DTD/svg11.dtd">
<svg version="1.1" id="Layer_1" xmlns="http://www.w3.org/2000/svg" xmlns:xlink="http://www.w3.org/1999/xlink" x="0px" y="0px"
	 viewBox="0 0 256 209" enable-background="new 0 0 256 209" xml:space="preserve">
<g>
	<path fill="#FFFFFF" d="M256,25.45c-9.419,4.177-19.541,7-30.166,8.27c10.845-6.5,19.172-16.793,23.094-29.057
		c-10.148,6.018-21.389,10.389-33.352,12.745c-9.582-10.208-23.23-16.586-38.337-16.586c-29.007,0-52.523,23.516-52.523,52.521
		c0,4.116,0.465,8.125,1.36,11.969c-43.651-2.19-82.351-23.1-108.255-54.875C13.3,18.193,10.71,27.215,10.71,36.84
		c0,18.221,9.273,34.297,23.366,43.715c-8.61-0.272-16.708-2.635-23.79-6.569c-0.003,0.219-0.003,0.439-0.003,0.66
		c0,25.447,18.104,46.675,42.131,51.5c-4.408,1.201-9.047,1.842-13.838,1.842c-3.384,0-6.675-0.328-9.881-0.941
		c6.683,20.866,26.08,36.051,49.062,36.475c-17.975,14.086-40.622,22.482-65.228,22.482c-4.239,0-8.42-0.248-12.529-0.732
		c23.243,14.902,50.851,23.596,80.511,23.596c96.606,0,149.433-80.03,149.433-149.435c0-2.277-0.05-4.542-0.15-6.794
		C240.053,45.233,248.959,35.982,256,25.45"/>
</g>
</svg>
