<svg width="72" height="72" viewBox="0 0 72 72" fill="none" xmlns="http://www.w3.org/2000/svg">
<path d="M35.9319 16.0006C35.5881 15.9899 35.2535 16.1125 34.9979 16.3427C34.9979 16.3427 28.3244 22.2227 20.3333 22.2227C19.9797 22.2228 19.6406 22.3632 19.3906 22.6133C19.1405 22.8633 19 23.2024 19 23.556V34.4533C19 40.3892 21.7461 50.1567 35.3711 55.8955C35.5349 55.9645 35.7108 56 35.8885 56C36.0662 56 36.2421 55.9645 36.4058 55.8955C50.0309 50.1567 52.777 40.3892 52.777 34.4533V23.556C52.777 23.2024 52.6365 22.8633 52.3864 22.6133C52.1364 22.3632 51.7973 22.2228 51.4437 22.2227C43.4526 22.2227 36.7791 16.3427 36.7791 16.3427C36.5458 16.1324 36.2458 16.0113 35.9319 16.0006ZM35.8885 19.0475C37.7222 20.5218 43.0983 24.3002 50.1104 24.7782V34.4533C50.1104 39.5574 48.149 47.7916 35.8885 53.1786C23.6279 47.7916 21.6666 39.5574 21.6666 34.4533V24.7782C28.6787 24.3002 34.0548 20.5218 35.8885 19.0475ZM35.8677 27.5368C35.5143 27.5424 35.1777 27.6879 34.9316 27.9415C34.6855 28.195 34.5501 28.5359 34.5552 28.8892V37.7779C34.5527 37.9546 34.5853 38.13 34.6512 38.294C34.7171 38.4579 34.8149 38.6071 34.939 38.733C35.063 38.8588 35.2108 38.9587 35.3739 39.0269C35.5369 39.0951 35.7118 39.1302 35.8885 39.1302C36.0652 39.1302 36.2401 39.0951 36.4031 39.0269C36.5661 38.9587 36.714 38.8588 36.838 38.733C36.9621 38.6071 37.0599 38.4579 37.1258 38.294C37.1917 38.13 37.2243 37.9546 37.2218 37.7779V28.8892C37.2244 28.7108 37.1911 28.5336 37.1239 28.3683C37.0567 28.2029 36.9571 28.0527 36.8308 27.9266C36.7045 27.8005 36.5542 27.701 36.3887 27.6341C36.2233 27.5671 36.0461 27.534 35.8677 27.5368ZM35.8885 41.7778C35.417 41.7778 34.9648 41.9651 34.6314 42.2985C34.2981 42.6319 34.1108 43.0841 34.1108 43.5556C34.1108 44.027 34.2981 44.4792 34.6314 44.8126C34.9648 45.146 35.417 45.3333 35.8885 45.3333C36.36 45.3333 36.8122 45.146 37.1455 44.8126C37.4789 44.4792 37.6662 44.027 37.6662 43.5556C37.6662 43.0841 37.4789 42.6319 37.1455 42.2985C36.8122 41.9651 36.36 41.7778 35.8885 41.7778Z" fill="#D4630D"/>
</svg>
