<svg width="72" height="72" viewBox="0 0 72 72" fill="none" xmlns="http://www.w3.org/2000/svg">
<path d="M23.1111 20C21.4089 20 20 21.4089 20 23.1111V29.3333C20 31.0355 21.4089 32.4444 23.1111 32.4444H23.5556V33.7778C23.5531 33.9545 23.5857 34.1299 23.6516 34.2938C23.7175 34.4578 23.8153 34.607 23.9393 34.7328C24.0634 34.8587 24.2112 34.9586 24.3742 35.0268C24.5373 35.095 24.7122 35.1301 24.8889 35.1301C25.0656 35.1301 25.2405 35.095 25.4035 35.0268C25.5665 34.9586 25.7144 34.8587 25.8384 34.7328C25.9625 34.607 26.0603 34.4578 26.1262 34.2938C26.1921 34.1299 26.2247 33.9545 26.2222 33.7778V32.4444H29.3333C31.0355 32.4444 32.4444 31.0355 32.4444 29.3333V26.2222H33.7778C33.9545 26.2247 34.1299 26.1921 34.2938 26.1262C34.4578 26.0603 34.607 25.9625 34.7328 25.8384C34.8587 25.7144 34.9586 25.5665 35.0268 25.4035C35.095 25.2405 35.1301 25.0656 35.1301 24.8889C35.1301 24.7122 35.095 24.5373 35.0268 24.3742C34.9586 24.2112 34.8587 24.0634 34.7328 23.9393C34.607 23.8153 34.4578 23.7175 34.2938 23.6516C34.1299 23.5857 33.9545 23.5531 33.7778 23.5556H32.4444V23.1111C32.4444 21.4089 31.0355 20 29.3333 20H23.1111ZM42.6667 20C40.9645 20 39.5556 21.4089 39.5556 23.1111V23.5556H38.2222C38.0455 23.5531 37.8701 23.5857 37.7062 23.6516C37.5422 23.7175 37.393 23.8153 37.2672 23.9393C37.1413 24.0634 37.0414 24.2112 36.9732 24.3742C36.905 24.5373 36.8699 24.7122 36.8699 24.8889C36.8699 25.0656 36.905 25.2405 36.9732 25.4035C37.0414 25.5665 37.1413 25.7144 37.2672 25.8384C37.393 25.9625 37.5422 26.0603 37.7062 26.1262C37.8701 26.1921 38.0455 26.2247 38.2222 26.2222H39.5556V29.3333C39.5556 31.0355 40.9645 32.4444 42.6667 32.4444H45.7778V33.7778C45.7753 33.9545 45.8079 34.1299 45.8738 34.2938C45.9397 34.4578 46.0375 34.607 46.1616 34.7328C46.2856 34.8587 46.4335 34.9586 46.5965 35.0268C46.7595 35.095 46.9344 35.1301 47.1111 35.1301C47.2878 35.1301 47.4627 35.095 47.6258 35.0268C47.7888 34.9586 47.9366 34.8587 48.0607 34.7328C48.1847 34.607 48.2825 34.4578 48.3484 34.2938C48.4143 34.1299 48.4469 33.9545 48.4444 33.7778V32.4444H48.8889C50.5911 32.4444 52 31.0355 52 29.3333V23.1111C52 21.4089 50.5911 20 48.8889 20H42.6667ZM23.1111 22.6667H29.3333C29.5956 22.6667 29.7778 22.8488 29.7778 23.1111V24.6701C29.7543 24.8133 29.7543 24.9593 29.7778 25.1024V29.3333C29.7778 29.5956 29.5956 29.7778 29.3333 29.7778H25.1076C25.0285 29.7642 24.9483 29.7578 24.8681 29.7587C24.8029 29.7603 24.7379 29.7667 24.6736 29.7778H23.1111C22.8488 29.7778 22.6667 29.5956 22.6667 29.3333V23.1111C22.6667 22.8488 22.8488 22.6667 23.1111 22.6667ZM42.6667 22.6667H48.8889C49.1512 22.6667 49.3333 22.8488 49.3333 23.1111V29.3333C49.3333 29.5956 49.1512 29.7778 48.8889 29.7778H47.3299C47.2507 29.7642 47.1706 29.7578 47.0903 29.7587C47.0251 29.7603 46.9601 29.7667 46.8958 29.7778H42.6667C42.4044 29.7778 42.2222 29.5956 42.2222 29.3333V25.1076C42.2457 24.9645 42.2457 24.8185 42.2222 24.6753V23.1111C42.2222 22.8488 42.4044 22.6667 42.6667 22.6667ZM24.8681 36.8698C24.5147 36.8753 24.1781 37.0208 23.932 37.2744C23.6859 37.528 23.5505 37.8689 23.5556 38.2222V39.5556H23.1111C21.4089 39.5556 20 40.9645 20 42.6667V48.8889C20 50.5911 21.4089 52 23.1111 52H29.3333C31.0355 52 32.4444 50.5911 32.4444 48.8889V48.4444H33.7778C33.9545 48.4469 34.1299 48.4143 34.2938 48.3484C34.4578 48.2825 34.607 48.1847 34.7328 48.0607C34.8587 47.9366 34.9586 47.7888 35.0268 47.6258C35.095 47.4627 35.1301 47.2878 35.1301 47.1111C35.1301 46.9344 35.095 46.7595 35.0268 46.5965C34.9586 46.4335 34.8587 46.2856 34.7328 46.1616C34.607 46.0375 34.4578 45.9397 34.2938 45.8738C34.1299 45.8079 33.9545 45.7753 33.7778 45.7778H32.4444V42.6667C32.4444 40.9645 31.0355 39.5556 29.3333 39.5556H26.2222V38.2222C26.2248 38.0438 26.1915 37.8666 26.1243 37.7013C26.0572 37.5359 25.9575 37.3857 25.8312 37.2596C25.7049 37.1335 25.5546 37.034 25.3892 36.967C25.2237 36.9001 25.0465 36.867 24.8681 36.8698ZM47.0903 36.8698C46.737 36.8753 46.4003 37.0208 46.1542 37.2744C45.9081 37.528 45.7727 37.8689 45.7778 38.2222V39.5556H42.6667C40.9645 39.5556 39.5556 40.9645 39.5556 42.6667V45.7778H38.2222C38.0455 45.7753 37.8701 45.8079 37.7062 45.8738C37.5422 45.9397 37.393 46.0375 37.2672 46.1616C37.1413 46.2856 37.0414 46.4335 36.9732 46.5965C36.905 46.7595 36.8699 46.9344 36.8699 47.1111C36.8699 47.2878 36.905 47.4627 36.9732 47.6258C37.0414 47.7888 37.1413 47.9366 37.2672 48.0607C37.393 48.1847 37.5422 48.2825 37.7062 48.3484C37.8701 48.4143 38.0455 48.4469 38.2222 48.4444H39.5556V48.8889C39.5556 50.5911 40.9645 52 42.6667 52H48.8889C50.5911 52 52 50.5911 52 48.8889V42.6667C52 40.9645 50.5911 39.5556 48.8889 39.5556H48.4444V38.2222C48.447 38.0438 48.4137 37.8666 48.3465 37.7013C48.2794 37.5359 48.1797 37.3857 48.0534 37.2596C47.9271 37.1335 47.7768 37.034 47.6114 36.967C47.4459 36.9001 47.2687 36.867 47.0903 36.8698ZM23.1111 42.2222H24.6701C24.8133 42.2457 24.9593 42.2457 25.1024 42.2222H29.3333C29.5956 42.2222 29.7778 42.4044 29.7778 42.6667V46.8924C29.7543 47.0355 29.7543 47.1815 29.7778 47.3247V48.8889C29.7778 49.1512 29.5956 49.3333 29.3333 49.3333H23.1111C22.8488 49.3333 22.6667 49.1512 22.6667 48.8889V42.6667C22.6667 42.4044 22.8488 42.2222 23.1111 42.2222ZM42.6667 42.2222H46.8924C47.0355 42.2457 47.1815 42.2457 47.3247 42.2222H48.8889C49.1512 42.2222 49.3333 42.4044 49.3333 42.6667V48.8889C49.3333 49.1512 49.1512 49.3333 48.8889 49.3333H42.6667C42.4044 49.3333 42.2222 49.1512 42.2222 48.8889V47.3299C42.2457 47.1867 42.2457 47.0407 42.2222 46.8976V42.6667C42.2222 42.4044 42.4044 42.2222 42.6667 42.2222Z" fill="#D4630D"/>
</svg>
