<svg width="72" height="72" viewBox="0 0 72 72" fill="none" xmlns="http://www.w3.org/2000/svg">
<rect width="72" height="72" rx="36" fill="#0A0001"/>
<path d="M36 15C35.648 14.9999 35.3071 15.1237 35.0371 15.3496C35.0371 15.3496 31.3095 18.4655 27.5859 23.041C23.8624 27.6165 20 33.6796 20 40C20 48.5438 26.7459 55.5304 35.1855 55.959C35.4536 55.9864 35.725 56 36 56C36.275 56 36.5464 55.9864 36.8145 55.959C45.2541 55.5304 52 48.5438 52 40C52 33.243 47.6008 26.7782 43.6445 22.1172C43.4458 21.8828 43.18 21.715 42.8828 21.6366C42.5857 21.5583 42.2717 21.573 41.9832 21.6789C41.6948 21.7848 41.4458 21.9767 41.2699 22.2287C41.0941 22.4807 40.9998 22.7806 41 23.0879V27.5C41 28.3465 40.3465 29 39.5 29C38.6535 29 38 28.3465 38 27.5V16.9355C38 16.7232 37.9549 16.5133 37.8676 16.3197C37.7804 16.1261 37.6531 15.9532 37.4941 15.8125C37.1687 15.5242 36.9668 15.3535 36.9668 15.3535C36.6963 15.1253 36.3539 15.0001 36 15ZM35 19.4473V27.5C35 29.9675 37.0325 32 39.5 32C41.9675 32 44 29.9675 44 27.5V27.4805C46.7382 31.3652 49 35.8888 49 40C49 44.3668 46.856 48.2109 43.5684 50.5664C43.844 49.7593 44 48.8974 44 48C44 44.6591 42.1698 41.6012 40.4551 39.293C38.7404 36.9847 37.0176 35.3984 37.0176 35.3984C36.8702 35.2621 36.6969 35.1568 36.508 35.0887C36.3191 35.0206 36.1185 34.9911 35.918 35.002C35.5695 35.0213 35.2387 35.1615 34.9824 35.3984C34.9824 35.3984 33.2596 36.9847 31.5449 39.293C29.8302 41.6012 28 44.6591 28 48C28 48.8974 28.156 49.7593 28.4316 50.5664C25.144 48.2109 23 44.3668 23 40C23 34.9554 26.3876 29.2688 29.9141 24.9355C31.8698 22.5323 33.6468 20.7327 35 19.4473ZM36 38.7578C36.5659 39.3288 37.0197 39.7019 38.0449 41.082C39.5802 43.1488 41 45.8409 41 48C41 50.605 39.0488 52.7196 36.5156 52.9746C36.3461 52.9917 36.1744 53 36 53C35.8263 53 35.6553 52.9916 35.4863 52.9746C35.4857 52.9746 35.485 52.9746 35.4844 52.9746C32.9512 52.7196 31 50.605 31 48C31 45.8409 32.4198 43.1488 33.9551 41.082C34.9803 39.7019 35.4341 39.3288 36 38.7578Z" fill="#D4630D"/>
</svg>
