<svg width="72" height="72" viewBox="0 0 72 72" fill="none" xmlns="http://www.w3.org/2000/svg">
<rect width="72" height="72" rx="36" fill="#0A0001"/>
<path d="M43.5004 15C40.8129 15 38.5028 16.6543 37.518 19C37.5121 19 37.5063 19 37.5004 19C33.3761 19 30.0004 22.3756 30.0004 26.5C30.0004 30.6244 33.3761 34 37.5004 34C41.1635 34 44.2301 31.3347 44.8715 27.8496C47.7914 27.2144 50.0004 24.6015 50.0004 21.5C50.0004 17.9281 47.0724 15 43.5004 15ZM43.5004 18C45.4505 18 47.0004 19.5499 47.0004 21.5C47.0004 22.9936 46.0874 24.2444 44.7856 24.752C44.2346 22.4716 42.6383 20.59 40.5336 19.6504C41.1483 18.6625 42.2365 18 43.5004 18ZM37.5004 22C40.0035 22 42.0004 23.997 42.0004 26.5C42.0004 29.003 40.0035 31 37.5004 31C34.9974 31 33.0004 29.003 33.0004 26.5C33.0004 23.997 34.9974 22 37.5004 22ZM53.6137 34.0195C52.4935 34.0292 51.4296 34.4733 50.4848 35.1758C49.4706 35.9292 46.4188 38.208 43.7778 40.1797C43.205 38.3515 41.5063 37 39.5004 37H35.1078C32.2966 37 30.986 36.7722 29.8598 36.5332C28.7336 36.2942 27.6472 36 25.8266 36C21.9418 36 19.0128 38.493 17.0942 40.791C15.1756 43.089 14.1352 45.3848 14.1352 45.3848C14.0534 45.5641 14.0078 45.7577 14.0009 45.9546C13.994 46.1516 14.026 46.3479 14.095 46.5325C14.164 46.7171 14.2687 46.8862 14.403 47.0303C14.5374 47.1745 14.6989 47.2907 14.8782 47.3724C15.0575 47.4541 15.2512 47.4997 15.4481 47.5065C15.645 47.5134 15.8414 47.4814 16.0259 47.4123C16.2105 47.3433 16.3796 47.2386 16.5237 47.1041C16.6678 46.9697 16.784 46.8082 16.8657 46.6289C16.8657 46.6289 17.7647 44.6698 19.3969 42.7148C21.0291 40.7599 23.2604 39 25.8266 39C27.348 39 28.0072 39.2058 29.2368 39.4668C30.4663 39.7278 32.1241 40 35.1078 40H39.5004C40.3469 40 41.0004 40.6535 41.0004 41.5C41.0004 41.9695 40.7946 42.3743 40.4711 42.6465C40.4708 42.6467 40.4301 42.6777 40.4301 42.6777C40.4006 42.7007 40.3719 42.7248 40.3442 42.75C40.1057 42.9086 39.8169 43 39.5004 43H32.5004C32.3017 42.9972 32.1043 43.0339 31.9199 43.108C31.7354 43.1822 31.5675 43.2922 31.426 43.4318C31.2844 43.5713 31.172 43.7376 31.0953 43.921C31.0186 44.1044 30.9791 44.3012 30.9791 44.5C30.9791 44.6988 31.0186 44.8956 31.0953 45.079C31.172 45.2624 31.2844 45.4287 31.426 45.5682C31.5675 45.7078 31.7354 45.8178 31.9199 45.892C32.1043 45.9661 32.3017 46.0028 32.5004 46H39.5004C40.4426 46 41.319 45.701 42.0453 45.1973C42.1079 45.1632 42.168 45.1247 42.225 45.082C42.225 45.082 50.7764 38.6964 52.2739 37.584C52.2739 37.5833 52.2739 37.5827 52.2739 37.582C52.8381 37.1625 53.3102 37.0224 53.6411 37.0195C53.9719 37.0166 54.2187 37.0969 54.561 37.4395C55.1513 38.0293 55.1478 38.9351 54.5727 39.5332C49.2176 44.0362 45.8489 47.0369 43.6235 48.7949C41.3703 50.5749 40.4254 51 39.5004 51C35.8483 51 31.8011 50 27.5004 50C25.0004 50 23.2432 51.3436 22.3012 52.5996C21.3592 53.8556 21.0453 55.1367 21.0453 55.1367C20.9924 55.3295 20.9785 55.531 21.0046 55.7292C21.0306 55.9275 21.096 56.1185 21.1969 56.2911C21.2978 56.4637 21.4322 56.6144 21.5922 56.7344C21.7522 56.8543 21.9346 56.941 22.1286 56.9894C22.3226 57.0379 22.5243 57.047 22.7219 57.0164C22.9195 56.9857 23.1089 56.9159 23.2791 56.811C23.4493 56.7061 23.5969 56.5682 23.713 56.4054C23.8292 56.2427 23.9116 56.0584 23.9555 55.8633C23.9555 55.8633 24.1416 55.1444 24.6996 54.4004C25.2576 53.6564 26.0004 53 27.5004 53C31.3078 53 35.3365 54 39.5004 54C41.4024 54 43.0853 53.0444 45.4828 51.1504C47.8502 49.2802 51.1758 46.3099 56.4985 41.834C56.5636 41.7882 56.625 41.7372 56.6821 41.6816C56.689 41.6747 56.6909 41.6651 56.6977 41.6582L56.7016 41.6621L56.7543 41.6074C56.9007 41.4549 57.0132 41.2732 57.0844 41.0742C58.3309 39.3218 58.2493 36.8843 56.6821 35.3184C55.8533 34.4889 54.7339 34.0099 53.6137 34.0195Z" fill="#D4630D"/>
</svg>
