<?xml version="1.0" encoding="UTF-8" standalone="no"?>
<!-- Generator: Adobe Illustrator 19.0.0, SVG Export Plug-In . SVG Version: 6.00 Build 0)  -->

<svg
   xmlns="http://www.w3.org/2000/svg"
   version="1.1"
   id="Capa_1"
   x="0px"
   y="0px"
   viewBox="0 0 384.97 384.97"
   style="enable-background:new 0 0 384.97000000000002728 384.97000000000002728"><defs
   id="defs56" />
<g
   id="g21">
	<g
   id="Menu">
		<path
   d="M12.03,84.212h360.909c6.641,0,12.03-5.39,12.03-12.03c0-6.641-5.39-12.03-12.03-12.03H12.03    C5.39,60.152,0,65.541,0,72.182C0,78.823,5.39,84.212,12.03,84.212z"
   id="path2" />
		<path
   d="M372.939,180.455H12.03c-6.641,0-12.03,5.39-12.03,12.03s5.39,12.03,12.03,12.03h360.909c6.641,0,12.03-5.39,12.03-12.03    S379.58,180.455,372.939,180.455z"
   id="path4" />
		<path
   d="M372.939,300.758H12.03c-6.641,0-12.03,5.39-12.03,12.03c0,6.641,5.39,12.03,12.03,12.03h360.909    c6.641,0,12.03-5.39,12.03-12.03C384.97,306.147,379.58,300.758,372.939,300.758z"
   id="path6" />
	</g>
	<g
   id="g9">
	</g>
	<g
   id="g11">
	</g>
	<g
   id="g13">
	</g>
	<g
   id="g15">
	</g>
	<g
   id="g17">
	</g>
	<g
   id="g19">
	</g>
</g>
<g
   id="g23">
</g>
<g
   id="g25">
</g>
<g
   id="g27">
</g>
<g
   id="g29">
</g>
<g
   id="g31">
</g>
<g
   id="g33">
</g>
<g
   id="g35">
</g>
<g
   id="g37">
</g>
<g
   id="g39">
</g>
<g
   id="g41">
</g>
<g
   id="g43">
</g>
<g
   id="g45">
</g>
<g
   id="g47">
</g>
<g
   id="g49">
</g>
<g
   id="g51">
</g>
</svg>