<svg width="40" height="39" viewBox="0 0 40 39" fill="none" xmlns="http://www.w3.org/2000/svg">
<path d="M39.9954 19.1948C40.2309 29.1827 31.4543 38.227 19.9946 38.2199C8.55368 38.2091 -0.121192 29.1684 0.00128081 19.159C0.129407 8.59888 8.91733 0.198518 20.0775 0.205693C31.1283 0.212868 39.9954 8.66525 39.9954 19.1948ZM17.074 35.2153C17.1796 35.1937 17.2832 35.1722 17.3887 35.1525C17.2455 29.493 16.6934 23.8157 18.2102 18.3015C17.9483 18.0845 17.8277 17.9302 17.6676 17.8603C16.8423 17.4979 16.0189 17.1302 15.171 16.8163C13.6825 16.2656 13.1078 15.3184 13.3754 13.6197C13.7032 13.7704 13.9971 13.9175 14.3024 14.0431C15.3067 14.4574 16.294 14.9238 17.3265 15.2575C18.6963 15.7005 18.9639 16.0378 18.751 17.428C18.6059 18.3733 18.4212 19.3168 18.3459 20.2693C18.2762 21.1393 19.141 22.3286 19.8363 22.4703C20.4392 22.5941 21.37 21.8533 21.664 20.9079C21.7827 20.5276 21.7299 20.0846 21.6866 19.6756C21.5886 18.7249 21.4303 17.7813 21.3323 16.8306C21.2475 16.018 21.6979 15.5911 22.4911 15.3238C23.6103 14.9489 24.6938 14.4754 25.7904 14.0413C26.09 13.9229 26.3858 13.7901 26.7212 13.6466C26.8757 15.5642 26.3632 16.2871 24.6523 16.8898C23.7272 17.2163 22.8454 17.6522 21.8241 18.0917C23.3484 23.8246 22.77 29.5164 22.8585 35.217C23.3013 34.7381 23.6103 34.2341 23.8835 33.7138C24.121 33.26 24.3113 32.7847 24.5317 32.3219C25.5793 30.1191 26.6703 27.9342 27.6538 25.7063C27.9591 25.0121 28.091 24.2031 28.1004 23.4444C28.1437 19.7079 28.14 15.9714 28.1079 12.2349C28.1004 11.3434 28.0778 10.407 27.7933 9.5747C27.2845 8.08585 26.8286 6.48399 25.8883 5.24806C24.1963 3.02375 21.6112 2.41565 18.8245 2.76186C16.5992 3.0381 14.6321 3.99778 13.6222 5.92253C12.5614 7.94414 11.8887 10.1469 11.9057 12.4771C11.9321 16.1544 11.9 19.8298 11.9283 23.5071C11.9321 24.0937 11.9999 24.7269 12.2411 25.2543C13.6373 28.3199 15.0881 31.3622 16.5333 34.408C16.6689 34.6951 16.8913 34.948 17.074 35.2153Z" fill="#B70000"/>
</svg>
